<svg width="507" height="371" viewBox="0 0 507 371" fill="none" xmlns="http://www.w3.org/2000/svg">
<path opacity="0.26" d="M410.822 370.293C463.921 370.293 506.966 367.698 506.966 364.498C506.966 361.297 463.921 358.703 410.822 358.703C357.723 358.703 314.678 361.297 314.678 364.498C314.678 367.698 357.723 370.293 410.822 370.293Z" fill="url(#paint0_linear)"/>
<path d="M439.466 357.308C440.601 357.308 441.52 356.388 441.52 355.254C441.52 354.12 440.601 353.2 439.466 353.2C438.332 353.2 437.412 354.12 437.412 355.254C437.412 356.388 438.332 357.308 439.466 357.308Z" fill="#0AC2C6"/>
<path d="M483.677 353.218L483.157 354.682L461.173 347.871L462.227 344.907L483.677 353.218Z" fill="#0AC2C6"/>
<path d="M460.419 346.827H462.918V320.287H460.419V346.827Z" fill="#0AC2C6"/>
<path d="M439.465 353.218L439.985 354.682L461.971 347.871L461.006 344.72L439.465 353.218Z" fill="#0AC2C6"/>
<path d="M454.956 354.525V356.228L461.971 347.871L461.006 344.72L454.956 354.525Z" fill="#0AC2C6"/>
<path d="M456.835 357.308C457.969 357.308 458.889 356.388 458.889 355.254C458.889 354.12 457.969 353.2 456.835 353.2C455.7 353.2 454.781 354.12 454.781 355.254C454.781 356.388 455.7 357.308 456.835 357.308Z" fill="#0AC2C6"/>
<path d="M430.302 348.108C430.302 348.108 430.28 349.502 429.827 351.126C429.494 352.316 428.828 356.926 427.977 357.57C427.127 358.216 424.382 359.924 424.786 361.678C425.189 363.434 425.53 364.658 428.493 363.619C431.456 362.579 433.436 361.985 434.006 359.385C434.574 356.785 436.195 354.416 436.195 354.416L438.337 359.743L439.466 359.289C439.466 359.289 437.761 353.536 437.906 353.023C438.052 352.509 437.123 347.939 433.54 346.806C429.957 345.675 430.302 348.108 430.302 348.108Z" fill="#B07042"/>
<path d="M410.512 349.788C410.512 349.788 409.97 351.072 408.944 352.41C408.192 353.39 405.855 357.42 404.826 357.699C403.797 357.98 400.613 358.542 400.331 360.321C400.051 362.1 399.91 363.364 403.048 363.504C406.183 363.646 408.243 363.832 409.74 361.632C411.237 359.433 413.626 357.841 413.626 357.841V363.58H414.843C414.843 363.58 415.405 357.606 415.734 357.184C416.062 356.763 416.904 352.175 414.003 349.788C411.098 347.4 410.512 349.788 410.512 349.788Z" fill="#B07042"/>
<path d="M442.406 271.779C442.406 271.779 441.71 269.306 441.64 268.985C441.572 268.662 440.913 268.023 440.089 267.353C439.268 266.684 437.86 266.148 437.685 266.202C437.511 266.258 437.31 266.23 437.022 266.6C436.735 266.97 436.694 267.442 436.694 267.442C436.694 267.442 436.127 267.732 436.119 268.316C436.119 268.316 435.598 268.613 435.699 269.278C435.699 269.278 435.198 269.582 435.313 270.058C435.313 270.058 435.972 270.701 436.149 271.009C436.326 271.318 437.79 272.561 439.377 273.535C439.377 273.536 441.403 275.033 442.406 271.779Z" fill="#EEA886"/>
<path d="M439.37 269.82C439.37 269.82 439.072 270.861 439.136 271.195C439.198 271.53 436.758 271.579 436.758 271.579C436.758 271.579 438.097 269.489 439.37 269.82Z" fill="#CF8C6C"/>
<path d="M466.843 276.03C465.859 274.434 464.543 273.716 460.368 276.603C456.193 279.49 457.175 278.924 456.175 279.84C455.176 280.754 450.796 283.044 450.796 283.044C450.796 283.044 448.235 280.5 447.01 278.694C445.626 276.657 442.739 271.216 442.739 271.216L438.691 274.23C438.691 274.23 446.555 288.488 448.197 289.541C449.84 290.595 454.792 288.832 457.368 287.747C459.943 286.66 462.671 285.256 463.847 284.965C465.024 284.673 469.414 280.191 466.843 276.03Z" fill="#D88A51"/>
<path d="M437.408 259.411L436.432 259.627L438.408 268.56L439.384 268.344L437.408 259.411Z" fill="#EB4747"/>
<path d="M437.909 266.37C437.909 266.37 439.948 268.116 439.709 268.479C439.466 268.842 439.159 268.832 439.159 268.832L439.673 269.931C439.673 269.931 439.603 270.852 438.619 270.504C438.619 270.504 438.644 271.371 437.735 270.924C437.735 270.924 437.494 271.503 437.036 271.369C436.581 271.237 435.313 270.058 435.313 270.058C435.313 270.058 435.127 269.682 435.672 269.27C435.672 269.27 435.543 268.636 436.101 268.306C436.101 268.306 436.053 267.771 436.659 267.419C436.659 267.419 436.719 266.271 437.685 266.201C437.685 266.202 437.822 266.295 437.909 266.37Z" fill="#DB9C7C"/>
<path d="M441.611 269.011C441.611 269.011 440.245 267.774 439.203 267.427C438.965 267.349 438.723 267.316 438.561 267.504C438.398 267.694 438.468 268.169 439.034 268.736C439.598 269.3 440.068 270.291 440.068 270.291C440.068 270.291 440.819 270.703 441.611 269.011Z" fill="#EEA886"/>
<path d="M447.384 284.691C447.384 284.691 446.56 281.712 447.53 279.405C447.53 279.405 447.159 281.793 448.206 283.491C448.964 284.72 447.384 284.691 447.384 284.691Z" fill="#BD7947"/>
<path d="M432.469 285.152C432.469 285.152 430.264 268.823 426.424 261.703H432.072C432.072 261.703 438.4 272.854 437.214 284.116L432.469 285.152Z" fill="#EDDAD3"/>
<path d="M431.115 272.926C431.115 272.926 430.472 271.725 430.315 271.333C430.16 270.94 429.528 271.621 429.624 272.125C429.718 272.629 431.115 272.926 431.115 272.926Z" fill="#EEA886"/>
<path d="M426.106 275.658C426.106 275.658 426.275 276.246 426.476 276.467C426.476 276.467 426.872 276.841 427.135 277.124C427.219 277.214 427.289 277.295 427.33 277.351C427.498 277.587 427.798 278.158 428.363 278.612C428.926 279.066 431.08 280.467 431.08 280.467L432.601 278.842L433.821 277.577C433.821 277.577 432.789 273.71 432.313 273.225C432.267 273.179 432.217 273.133 432.168 273.095C431.726 272.725 431.242 272.636 430.987 272.467C430.891 272.407 429.917 271.862 429.604 271.982C429.174 272.15 428.941 272.441 428.875 272.75C428.875 272.75 428.043 273.115 427.766 273.659C427.766 273.659 426.988 273.969 426.835 274.746C426.837 274.747 426.082 275.151 426.106 275.658Z" fill="#EEA886"/>
<path d="M416.101 317.824C416.101 317.824 419.836 326.224 422.501 332.22C422.947 333.229 423.364 334.169 423.73 334.988C424.159 335.951 424.512 336.748 424.756 337.298C426.451 341.114 430.625 349.437 430.625 349.437C430.625 349.437 433.764 349.556 433.946 346.89C433.946 346.89 430.933 341.115 430.933 337.056C430.933 332.997 430.39 321.041 426.512 318.458C421.785 315.304 418.715 314.709 416.101 317.824Z" fill="#EEA886"/>
<path d="M450.624 301.858C450.624 301.858 449.837 302.645 449.17 302.827C448.505 303.01 437.359 303.857 432.209 305.554C427.061 307.25 420.215 308.341 418.942 309.794C417.67 311.249 415.55 319.245 415.61 320.759C415.671 322.275 411.085 347.796 410.512 349.788C410.211 350.844 414.66 350.439 414.66 350.439C414.66 350.439 420.981 335.358 422.333 332.573C424.813 327.454 424.938 321.183 425.848 320.215C426.756 319.245 436.872 317.065 442.689 317.065C448.504 317.065 461.53 317.549 462.921 316.761C464.314 315.974 473.039 310.219 469.404 302.525C465.769 294.831 450.624 301.858 450.624 301.858Z" fill="#EEA886"/>
<path d="M425.496 307.408L434.695 325.121C434.695 325.121 437.476 318.533 442.324 317.399C447.173 316.265 466.523 316.874 466.523 316.874C466.523 316.874 475.403 305.641 467.798 299.748C460.194 293.856 451.315 300.675 451.315 300.675C451.315 300.675 449.482 302.664 448.594 302.708C447.706 302.753 440.598 302.57 425.496 307.408Z" fill="#1D3B54"/>
<path d="M404.826 357.699C404.826 357.699 407.636 358.401 408.71 357.699C409.786 356.998 413.448 350.811 414.661 350.439C414.661 350.439 413.485 348.056 410.513 349.788C410.512 349.788 405.62 356.67 404.826 357.699Z" fill="#EEA886"/>
<path d="M427.977 357.57C427.977 357.57 430.846 357.174 431.581 356.121C432.317 355.067 433.406 347.962 434.393 347.166C434.393 347.166 432.415 345.391 430.301 348.108C430.302 348.108 428.331 356.317 427.977 357.57Z" fill="#EEA886"/>
<path d="M483.677 357.308C484.811 357.308 485.731 356.388 485.731 355.254C485.731 354.12 484.811 353.2 483.677 353.2C482.543 353.2 481.623 354.12 481.623 355.254C481.623 356.388 482.543 357.308 483.677 357.308Z" fill="#0AC2C6"/>
<path d="M457.284 246.1C455.065 245.993 450.151 247.108 449.393 252.981C449.393 252.981 449.572 254.564 449.955 255.807C450.339 257.052 449.226 260.72 449.516 260.9C449.805 261.082 451.006 261.312 451.006 261.312C451.006 261.312 452.299 265.32 453.705 265.285C455.112 265.251 460.438 264.152 462.946 259.167C465.456 254.182 466.23 246.534 457.284 246.1Z" fill="#EEA886"/>
<path d="M455.609 263.457C455.609 263.457 455.781 264.019 455.977 264.853C456.077 265.278 456.185 265.775 456.277 266.303C456.535 267.766 456.682 269.474 456.305 270.612C456.305 270.612 459.413 271.69 461.871 267.294C461.871 267.294 460.816 262.559 462.187 259.687C463.557 256.816 455.609 263.457 455.609 263.457Z" fill="#EEA886"/>
<path d="M449.393 252.981C449.393 252.981 452.793 256.034 456.389 255.792C460.042 255.546 462.412 260.109 462.412 260.109C462.412 260.109 467.847 253.288 463.467 247.771C459.085 242.254 448.616 246.136 449.393 252.981Z" fill="#1D3B54"/>
<path d="M458.045 255.764C458.067 255.074 458.835 254.035 459.969 254.98C461.099 255.925 459.577 259.212 458.649 258.889C457.719 258.567 458.026 256.478 458.045 255.764Z" fill="#EEA886"/>
<path d="M455.977 264.853C456.077 265.278 456.185 265.775 456.277 266.303C459.165 264.469 460.619 262.241 460.619 262.241C458.968 263.736 455.977 264.853 455.977 264.853Z" fill="#A77860"/>
<path d="M447.548 281.65C448.202 284.685 449.924 284.844 449.819 287.086C449.716 289.327 449.045 289.519 450.206 293.053C450.42 293.707 450.594 294.419 450.735 295.147C450.752 295.232 450.768 295.319 450.784 295.405C450.857 295.813 450.923 296.224 450.978 296.63C451.081 297.38 451.156 298.113 451.206 298.781C451.343 300.525 450.06 301.871 450.06 301.871C450.06 301.871 461.398 308.665 469.184 307.711C469.184 307.711 467.168 299.239 466.057 296.33C464.948 293.421 465.284 279.975 466.101 277.088C467.306 272.83 464.898 266.446 461.606 265.615L456.502 267.978C456.502 267.978 451.363 274.117 450.211 275.043C449.056 275.97 446.882 278.575 447.548 281.65Z" fill="#D88A51"/>
<path d="M464.415 269.22C462.976 268.02 460.89 265.965 457.848 270.03C454.806 274.092 452.591 276.712 451.936 277.896C451.278 279.082 445.56 287.336 445.56 287.336C445.56 287.336 442.523 284.516 440.786 283.193C438.827 281.701 433.491 276.141 433.491 276.141L429.965 280.05C429.965 280.05 442.199 293.628 444.091 294.106C445.984 294.584 451.283 289.816 453.382 287.969C455.479 286.12 461.367 279.391 462.391 278.741C463.411 278.091 468.173 272.35 464.415 269.22Z" fill="#D88A51"/>
<path d="M422.502 332.219C422.948 333.228 423.365 334.168 423.731 334.987C425.106 330.573 424.991 323.193 424.991 323.193C424.167 328.338 422.525 332.16 422.502 332.219Z" fill="#A77860"/>
<path d="M442.323 321.197H481.622V316.873H442.323V321.197Z" fill="url(#paint1_linear)"/>
<path d="M461.173 303.079C461.173 303.079 462.165 307.086 457.499 307.995C452.836 308.906 447.098 310.069 447.098 317.266H463.277L461.173 303.079Z" fill="url(#paint2_linear)"/>
<path d="M437.186 259.459L436.518 258.228L436.431 259.624L437.186 259.459Z" fill="#EEA886"/>
<path d="M481.623 321.198L495.362 263.455C495.362 263.455 470.524 259.574 467.564 270.728C464.606 281.882 459.739 315.014 453.819 317.063C447.902 319.112 481.623 321.198 481.623 321.198Z" fill="url(#paint3_linear)"/>
<path d="M449.675 291.124C449.675 291.124 449.927 292.183 450.198 293.061L456.24 285.223L449.675 291.124Z" fill="#BD7947"/>
<path d="M464.826 255.207C464.826 255.207 462.435 261.517 463.086 263.241C463.086 263.241 459.357 261.648 460.038 257.512C460.718 253.378 464.826 255.207 464.826 255.207Z" fill="#1D3B54"/>
<path d="M456.21 268.327V267.079L461.51 264.497L463.346 266.616L456.21 268.327Z" fill="#D88A51"/>
<path opacity="0.26" d="M100.513 370.293C156.025 370.293 201.026 367.698 201.026 364.498C201.026 361.297 156.025 358.703 100.513 358.703C45.0012 358.703 0 361.297 0 364.498C0 367.698 45.0012 370.293 100.513 370.293Z" fill="url(#paint4_linear)"/>
<path d="M104.11 91.34C102.687 90.927 101.455 90.108 100.605 88.998C99.6398 87.739 99.2768 86.257 99.5798 84.825C99.9728 81.962 99.7048 78.862 99.3978 76.712C96.5208 73.233 95.5548 68.589 96.8118 64.253C98.9008 57.053 106.458 52.895 113.658 54.984C120.859 57.072 125.017 64.63 122.928 71.83C121.791 75.749 118.997 78.91 115.248 80.526C113.689 83.017 112.574 85.364 111.934 87.502C111.287 90.424 108.006 92.202 104.608 91.465C104.441 91.43 104.275 91.388 104.11 91.34ZM113.35 56.052C106.739 54.134 99.7988 57.952 97.8818 64.564C96.7138 68.592 97.6368 72.911 100.352 76.118L100.456 76.24L100.478 76.397C100.804 78.627 101.104 81.931 100.68 84.999L100.673 85.041C100.432 86.155 100.722 87.321 101.489 88.323C102.277 89.352 103.47 90.083 104.846 90.382C107.654 90.99 110.348 89.584 110.855 87.249L110.86 87.228L110.866 87.208C111.547 84.924 112.736 82.429 114.402 79.789L114.497 79.639L114.659 79.572C118.178 78.108 120.804 75.174 121.862 71.523C123.779 64.909 119.961 57.97 113.35 56.052Z" fill="#FFD255"/>
<path d="M102.595 86.285L103.893 71.418L106.392 74.552L108.702 72.865L109.914 75.157L113.241 73.355L108.478 87.52L107.424 87.165L111.287 75.679L109.456 76.67L108.32 74.522L106.187 76.08L104.759 74.288L103.703 86.382L102.595 86.285Z" fill="#FFD255"/>
<path d="M109.596 91.1602L100.171 89.1175L99.3478 92.9153L108.773 94.9579L109.596 91.1602Z" fill="#FFD255"/>
<path d="M111.949 87.6121L99.4922 84.9125L98.167 91.0275L110.624 93.7271L111.949 87.6121Z" fill="#FFD255"/>
<path d="M398.186 171.131L397.101 170.757L406.211 144.235L426.568 138.599L433.57 109.523L449.248 102.386L452.514 79.804L453.652 79.969L450.293 103.173L434.556 110.337L427.524 139.525L407.101 145.182L398.186 171.131Z" fill="#FFD078"/>
<path d="M429.027 141.414C430.325 140.328 430.497 138.395 429.411 137.097C428.325 135.799 426.392 135.628 425.094 136.714C423.796 137.801 423.624 139.734 424.71 141.031C425.796 142.329 427.728 142.5 429.027 141.414Z" fill="white"/>
<path d="M429.381 141.852C427.843 143.14 425.543 142.935 424.254 141.397C422.969 139.858 423.172 137.559 424.711 136.271C426.248 134.984 428.55 135.187 429.835 136.726C431.124 138.266 430.92 140.565 429.381 141.852ZM425.45 137.153C424.394 138.033 424.255 139.607 425.138 140.66C426.018 141.714 427.59 141.852 428.643 140.972C429.695 140.091 429.835 138.517 428.955 137.464C428.074 136.411 426.502 136.271 425.45 137.153Z" fill="#FFD078"/>
<path d="M436.131 112.463C437.429 111.377 437.6 109.444 436.514 108.146C435.427 106.848 433.495 106.676 432.197 107.762C430.899 108.848 430.728 110.781 431.814 112.079C432.901 113.377 434.833 113.549 436.131 112.463Z" fill="white"/>
<path d="M436.482 112.895C434.943 114.183 432.646 113.978 431.357 112.44C430.069 110.9 430.273 108.601 431.811 107.314C433.35 106.026 435.651 106.23 436.939 107.769C438.227 109.308 438.021 111.607 436.482 112.895ZM432.55 108.195C431.497 109.076 431.357 110.649 432.239 111.703C433.119 112.755 434.693 112.895 435.747 112.014C436.799 111.134 436.939 109.56 436.058 108.507C435.175 107.454 433.602 107.314 432.55 108.195Z" fill="#FFD078"/>
<path d="M451.528 105.147C452.826 104.061 452.998 102.129 451.912 100.831C450.826 99.5336 448.894 99.3618 447.596 100.448C446.298 101.534 446.126 103.466 447.212 104.764C448.298 106.061 450.23 106.233 451.528 105.147Z" fill="white"/>
<path d="M451.915 105.564C450.377 106.852 448.076 106.647 446.79 105.108C445.502 103.569 445.706 101.27 447.244 99.982C448.782 98.694 451.082 98.899 452.37 100.437C453.656 101.976 453.452 104.276 451.915 105.564ZM447.981 100.863C446.93 101.745 446.79 103.318 447.67 104.371C448.552 105.424 450.123 105.564 451.178 104.683C452.232 103.801 452.37 102.229 451.489 101.175C450.606 100.122 449.035 99.982 447.981 100.863Z" fill="#FFD078"/>
<path d="M408.753 147.321C410.051 146.234 410.223 144.301 409.136 143.003C408.05 141.705 406.117 141.533 404.819 142.62C403.521 143.706 403.349 145.639 404.435 146.937C405.522 148.236 407.455 148.407 408.753 147.321Z" fill="white"/>
<path d="M409.109 147.758C407.569 149.045 405.271 148.842 403.982 147.303C402.694 145.763 402.901 143.464 404.439 142.177C405.977 140.889 408.276 141.094 409.564 142.632C410.851 144.17 410.647 146.47 409.109 147.758ZM405.175 143.058C404.122 143.939 403.982 145.512 404.863 146.566C405.746 147.618 407.318 147.758 408.37 146.877C409.424 145.997 409.563 144.423 408.682 143.371C407.802 142.317 406.227 142.177 405.175 143.058Z" fill="#FFD078"/>
<path d="M344.936 110.114C344.727 67.672 304.001 33.466 253.972 33.7117C203.944 33.96 163.558 68.567 163.767 111.009C163.824 122.182 166.688 132.784 171.79 142.336C171.817 142.392 199.719 196.276 203.887 247.503C204.006 271.465 226.998 290.775 255.241 290.638C283.486 290.497 306.286 270.96 306.169 246.998C309.831 195.706 337.228 141.519 337.228 141.519C342.231 131.916 344.99 121.287 344.936 110.114Z" fill="url(#paint5_radial)"/>
<path d="M360.435 6.436H370.574L367.472 0H357.332L360.435 6.436Z" fill="#FFD179"/>
<path d="M355.693 6.436H358.106L355.005 0H352.586L355.693 6.436Z" fill="#FFD179"/>
<path d="M146.663 14.1774L172.714 14.1774V12.3514L146.663 12.3514V14.1774Z" fill="#FFD887"/>
<path d="M146.663 23.4697L172.714 23.4697V15.7927L146.663 15.7927V23.4697Z" fill="#FFD887"/>
<path d="M134.428 27.1986L149.796 27.1986V26.0516H134.428V27.1986Z" fill="#FFD887"/>
<path d="M134.428 30.8074L149.796 30.8074V27.7004H134.428V30.8074Z" fill="#FFD887"/>
<path d="M176.993 24.0199H178.139V2.5109H176.993V24.0199Z" fill="#FFD989"/>
<path d="M105.445 136.961H125.964V133.244H105.445V136.961Z" fill="#FFD785"/>
<path d="M105.445 132.209H125.964V131.209H105.445V132.209Z" fill="#FFD785"/>
<path d="M370.925 128.988L367.728 128.353C375.353 90.013 368.885 58.984 349.024 38.621C334.001 23.218 316.431 19.169 316.256 19.13L316.961 15.947C317.711 16.113 335.532 20.193 351.24 36.226C365.702 50.985 380.856 79.06 370.925 128.988Z" fill="#FFD078"/>
<path d="M154.842 177.3C124.191 119.182 143.351 87.623 144.182 86.307L146.94 88.045C146.747 88.353 128.03 119.472 157.724 175.779L154.842 177.3Z" fill="#FFD078"/>
<path d="M294.565 121.726C295.419 119.488 295.943 117.17 296.142 114.841L300.789 113.063L299.892 107.733L298.994 102.403L294.019 102.245C293.067 100.11 291.818 98.091 290.274 96.258L292.301 91.718L287.895 88.583L283.493 85.45L279.868 88.852C277.63 87.996 275.311 87.475 272.981 87.274L271.203 82.626L265.873 83.525L260.544 84.422L260.386 89.395C258.251 90.348 256.232 91.599 254.399 93.142L249.857 91.115L246.723 95.52L243.59 99.924L246.992 103.548C246.135 105.786 245.614 108.104 245.413 110.433L240.766 112.211L241.665 117.542L242.563 122.872L247.535 123.03C248.488 125.165 249.74 127.184 251.283 129.017L249.256 133.557L253.659 136.69L258.065 139.824L261.689 136.422C263.926 137.278 266.247 137.799 268.573 138L270.352 142.646L275.682 141.748L281.014 140.85L281.169 135.877C283.306 134.924 285.325 133.672 287.159 132.129L291.697 134.157L294.831 129.753L297.967 125.348L294.565 121.726ZM263.094 123.436C257.129 119.192 255.735 110.916 259.98 104.954C264.223 98.99 272.498 97.596 278.463 101.84C284.426 106.084 285.82 114.359 281.575 120.322C277.331 126.286 269.057 127.68 263.094 123.436Z" fill="white"/>
<path d="M245.728 150.622C246.269 149.207 246.6 147.74 246.725 146.268L249.665 145.142L249.098 141.771L248.53 138.4L245.385 138.3C244.781 136.949 243.99 135.672 243.014 134.513L244.296 131.642L241.51 129.659L238.726 127.677L236.432 129.828C235.018 129.287 233.552 128.957 232.076 128.831L230.952 125.892L227.582 126.459L224.21 127.027L224.11 130.173C222.76 130.775 221.483 131.567 220.322 132.542L217.451 131.26L215.469 134.045L213.487 136.83L215.638 139.123C215.097 140.539 214.768 142.005 214.641 143.477L211.702 144.602L212.271 147.974L212.837 151.345L215.983 151.445C216.584 152.796 217.376 154.072 218.352 155.232L217.07 158.103L219.856 160.085L222.64 162.068L224.934 159.916C226.35 160.457 227.816 160.787 229.289 160.914L230.414 163.853L233.784 163.285L237.156 162.717L237.256 159.572C238.606 158.969 239.883 158.177 241.044 157.203L243.915 158.484L245.897 155.699L247.879 152.913L245.728 150.622ZM225.822 151.703C222.051 149.018 221.168 143.784 223.852 140.012C226.537 136.241 231.77 135.359 235.542 138.043C239.313 140.728 240.196 145.962 237.512 149.732C234.828 153.504 229.595 154.386 225.822 151.703Z" fill="white"/>
<path opacity="0.027925" d="M158.159 272.207C158.159 272.207 107.656 14.02 256.243 17.574C404.833 21.128 351.93 272.043 351.93 272.043L158.159 272.207Z" fill="url(#paint6_linear)"/>
<path d="M238.814 281.295L235.948 281.657L223.354 182.146L226.217 181.784L238.814 281.295Z" fill="url(#paint7_linear)"/>
<path d="M276.354 281.105L279.219 281.438L290.806 181.805L287.939 181.471L276.354 281.105Z" fill="url(#paint8_linear)"/>
<path d="M278.355 197.164L267.477 186.394L256.888 197.092L246.37 186.681L236.14 197.017L224.735 185.728L226.132 184.318L236.125 194.21L246.356 183.875L256.873 194.286L267.461 183.587L278.342 194.357L288.323 184.274L289.734 185.67L278.355 197.164Z" fill="url(#paint9_linear)"/>
<path d="M284.289 317.87L226.302 318.156C219.866 318.187 214.621 312.996 214.59 306.561L214.478 283.741L295.771 283.339L295.883 306.16C295.915 312.595 290.723 317.837 284.289 317.87Z" fill="#D46946"/>
<path d="M291.439 303.639L219.01 303.995C209.342 304.044 201.467 296.245 201.42 286.578L201.231 248.588L308.668 248.057L308.857 286.048C308.905 295.715 301.106 303.59 291.439 303.639Z" fill="url(#paint10_linear)"/>
<path d="M351.93 272.043H158.159V332.653H351.93V272.043Z" fill="url(#paint11_linear)"/>
<path d="M351.93 332.654V272.043H281.413L243.51 331.968L351.93 332.654Z" fill="url(#paint12_linear)"/>
<path d="M164.317 244.295H161.96V351.434H164.317V244.295Z" fill="#706865"/>
<path d="M167.63 333.75H104.223C100.315 333.75 97.1479 330.583 97.1479 326.675V206.61C97.1479 202.703 100.315 199.536 104.223 199.536H167.63C171.539 199.536 174.705 202.703 174.705 206.61V326.675C174.705 330.584 171.539 333.75 167.63 333.75Z" fill="#BDAFAA"/>
<path d="M165.586 328.506H106.267C102.406 328.506 99.2769 325.377 99.2769 321.516V208.688C99.2769 204.827 102.406 201.697 106.267 201.697H165.586C169.448 201.697 172.576 204.827 172.576 208.688V321.516C172.576 325.378 169.448 328.506 165.586 328.506Z" fill="white"/>
<path d="M147.482 198.518H124.371V203.737H147.482V198.518Z" fill="#706865"/>
<path d="M114.585 228.835C114.585 217.914 123.47 209.029 134.392 209.029V209.916C123.959 209.916 115.473 218.403 115.473 228.835C115.473 240.312 125.569 249.005 136.714 247.611C146.041 246.47 153.309 238.521 153.309 228.835C153.309 227.905 153.242 226.972 153.107 226.06L153.985 225.93C154.127 226.885 154.198 227.864 154.198 228.835C154.198 238.966 146.597 247.3 136.824 248.493C125.105 249.95 114.585 240.813 114.585 228.835Z" fill="#B5DEFF"/>
<path d="M89.433 291.26C89.433 291.26 89.965 292.131 90.032 292.843C90.085 293.405 90.558 294.246 90.763 294.711C90.968 295.177 91.627 297.279 91.651 297.826C91.66 298.049 91.161 299.46 91.232 299.911C91.303 300.361 91.561 301.256 91.155 301.315C90.75 301.375 90.291 300.641 90.291 300.641C90.291 300.641 90.329 301.056 89.987 301.215C89.32 301.523 88.967 301.252 88.967 301.252C88.967 301.252 88.722 301.708 88.413 301.77C87.732 301.906 87.399 301.633 87.399 301.633C87.399 301.633 87.1 301.889 86.629 301.88C86.027 301.868 85.775 301.349 85.775 301.349C85.775 301.349 85.013 301.502 84.793 301.148C84.572 300.794 84.61 300.414 84.519 300.091C84.427 299.77 84.497 296.862 85.483 294.768C86.471 292.674 85.231 290.632 85.231 290.632L89.433 291.26Z" fill="#EEA886"/>
<path d="M90.3983 300.37C90.3983 300.37 90.4653 297.761 89.7783 297.206C89.0923 296.649 89.0143 297.592 89.0143 297.592C89.0143 297.592 89.1073 296.662 88.3563 296.535C87.6063 296.41 87.5743 297.515 87.5743 297.515C87.5743 297.515 87.4523 296.798 86.6643 296.945C85.8763 297.091 86.0643 298.007 86.0643 298.007C86.0643 298.007 85.3113 297.11 84.8223 297.973C83.9983 299.429 84.7473 301.165 84.7473 301.165C84.7473 301.165 85.0143 301.578 85.7643 301.385C85.7643 301.385 86.2833 302.41 87.4043 301.685C87.4043 301.685 88.5643 302.32 88.9833 301.305C88.9833 301.305 90.3443 301.836 90.3983 300.37Z" fill="#DB9C7C"/>
<path d="M98.2831 253.679C98.2831 253.679 93.8171 268.565 92.3081 274.054C91.8351 275.776 90.6891 292.221 90.4871 292.883C90.2841 293.545 84.6191 294.453 84.6191 294.453C84.6191 294.453 85.3051 273.88 85.3701 272.758C85.4341 271.636 91.6201 248.662 93.4201 247.843C94.7681 247.229 95.4801 247.736 97.1781 248.997C99.5621 250.767 98.2831 253.679 98.2831 253.679Z" fill="url(#paint13_linear)"/>
<path d="M152.058 226.148L141.833 232.833L142.38 233.67L152.605 226.985L152.058 226.148Z" fill="#4DA8F2"/>
<path d="M153.648 229.984C153.648 229.984 153.55 230.562 153.384 230.794C153.384 230.794 153.049 231.192 152.828 231.491C152.759 231.587 152.701 231.67 152.669 231.728C152.533 231.971 152.312 232.546 151.824 233.04C151.336 233.533 149.441 235.103 149.441 235.103L147.815 233.725L146.128 232.969C146.128 232.969 147.072 228.864 147.474 228.351C147.513 228.301 147.554 228.253 147.594 228.21C147.977 227.81 148.428 227.672 148.653 227.482C148.735 227.414 149.603 226.789 149.912 226.87C150.342 226.981 150.595 227.233 150.693 227.52C150.693 227.52 151.523 227.775 151.847 228.263C151.847 228.263 152.622 228.474 152.851 229.196C152.852 229.198 153.613 229.499 153.648 229.984Z" fill="#EFAA88"/>
<path d="M94.6601 355.312C94.6601 355.312 94.2521 358.138 94.2021 358.562C94.1511 358.987 89.6731 358.313 89.6731 358.313L89.3101 354.949C89.3101 354.949 94.0991 354.914 94.6601 355.312Z" fill="#424773"/>
<path d="M94.2492 358.204C94.2492 358.204 95.6682 359.906 97.0392 360.649C98.4122 361.39 100.568 361.684 101.379 362.453C101.965 363.008 103.512 365.395 97.8132 365.346C92.1152 365.298 89.3672 365.684 88.7562 364.769C88.1452 363.853 89.6392 358.011 89.6392 358.011C89.6392 358.011 90.9892 358.498 94.2492 358.204Z" fill="#292C47"/>
<path d="M126.745 355.312C126.745 355.312 126.338 358.138 126.287 358.562C126.236 358.987 121.759 358.313 121.759 358.313L121.396 354.949C121.396 354.949 126.186 354.914 126.745 355.312Z" fill="#424773"/>
<path d="M126.334 358.204C126.334 358.204 127.753 359.906 129.124 360.649C130.497 361.39 135.547 362.001 136.358 362.769C136.944 363.324 137.918 365.556 129.899 365.346C124.202 365.199 121.452 365.684 120.841 364.769C120.23 363.853 121.724 358.011 121.724 358.011C121.724 358.011 122.997 358.531 126.334 358.204Z" fill="#292C47"/>
<path d="M98.3681 282.702C98.3681 282.702 94.1601 289.387 94.4731 295.43C94.7871 301.473 92.9471 308.07 92.3151 314.382C91.6101 321.419 88.7281 338.079 88.6231 341.845C88.5181 345.608 89.0711 357.628 89.0711 357.628L94.8431 357.761C94.8431 357.761 99.6921 328.636 100.948 325.663C102.203 322.691 108.429 301.504 108.639 299.127C108.848 296.749 98.3681 282.702 98.3681 282.702Z" fill="#292C47"/>
<path d="M120.518 283.608C120.518 283.608 123.688 300.17 124.106 303.869C124.525 307.567 124.804 321.766 125.013 324.079C125.222 326.391 126.969 354.258 127.525 357.762H120.145C120.145 357.762 114.48 337.453 114.48 327.844C114.48 318.235 110.103 306.954 107.279 300.614C104.454 294.274 97.988 294.125 96.251 282.362C96.25 282.361 118.166 279.878 120.518 283.608Z" fill="#292C47"/>
<path d="M105.389 226.499C105.389 226.499 111.036 224.389 113.641 228.688C116.245 232.988 115.994 241.594 113.147 242.653C110.299 243.711 106.024 243.158 104.567 240.466C103.109 237.778 101.794 233.888 101.857 231.289C101.919 228.691 103.905 227.249 105.389 226.499Z" fill="#EEA886"/>
<path d="M112.534 242.849C112.534 242.849 112.298 244.374 112.686 245.124C113.075 245.875 105.37 245.895 105.37 245.895C105.37 245.895 104.745 241.81 103.558 238.359C102.373 234.906 112.534 242.849 112.534 242.849Z" fill="#EEA886"/>
<path d="M103.559 238.359C103.559 238.359 104.09 239.235 106.261 238.895C108.432 238.555 111.08 235.667 111.987 235.349C112.894 235.033 112.903 234.499 112.903 234.499L113.47 235.329L114.432 235.39C114.432 235.39 113.554 232.806 114.879 231.752C116.203 230.698 113.504 223.391 106.542 225.823C106.542 225.823 101.194 227.297 101.39 230.338C101.584 233.379 102.362 236.843 103.559 238.359Z" fill="#292C47"/>
<path d="M113.144 245.035C113.144 245.035 113.12 243.599 112.469 243.463C111.819 243.324 105.289 242.696 104.49 243.011V244.683C104.49 244.682 106.028 245.628 113.144 245.035Z" fill="#E2D2CA"/>
<path d="M112.759 233.394C112.637 232.883 111.34 231.425 110.844 232.987C110.347 234.548 111.594 236.647 112.29 236.466C112.985 236.288 113.067 234.687 112.759 233.394Z" fill="#EEA886"/>
<path d="M123.944 247.207C119.467 246.617 113.143 245.034 113.143 245.034L104.49 244.68C104.49 244.68 96.5481 246.429 93.4201 247.842C93.1231 247.976 93.1221 254.927 92.3081 256.749L94.9011 262.222C94.9011 262.222 96.3991 273.059 96.7101 277.878C96.8521 280.09 93.6201 298.626 93.6201 298.626C93.6201 298.626 97.0831 299.646 102.989 300.297C108.896 300.948 123.653 300.062 123.746 299.364C123.839 298.666 120.889 273.388 120.758 272.079C120.558 270.071 121.451 259.394 121.451 259.394C122.814 258.336 134.787 252.778 138.052 249.883C138.927 249.107 142.616 245.514 143.664 244.274C147.379 239.882 150.423 236.115 150.794 235.303C151.215 234.84 146.62 232.349 146.215 232.214C145.861 232.097 140.98 238.671 139.048 240.764C138.186 241.697 134.605 244.302 134.605 244.302C134.605 244.302 126.745 247.37 123.944 247.207Z" fill="url(#paint14_linear)"/>
<path d="M103.78 227.006C103.78 227.006 96.5794 227.57 103.558 238.359L103.78 227.006Z" fill="#292C47"/>
<path d="M152.557 226.896L153.148 225.995L152.06 226.136L152.557 226.896Z" fill="#DFE1E8"/>
<path d="M502.568 208.075H468.898V232.479V237.62L474.038 232.479H502.568V208.075Z" fill="#518AFA"/>
<path d="M37.8589 358.296C37.8589 358.296 36.8179 360.237 36.1389 361.008C35.4589 361.778 32.8559 363.155 32.8409 365.445C32.8259 367.925 37.2289 367.237 38.9509 367.146C40.6729 367.056 40.8029 365.73 41.5299 364.325C42.2549 362.921 42.9849 363.158 43.1209 362.025C43.2569 360.891 42.4189 358.296 42.4189 358.296H37.8589Z" fill="#202338"/>
<path d="M63.9391 292.152C63.9391 292.152 59.0891 280.847 58.5041 278.065C58.2401 276.804 57.5121 273.67 57.0511 271.096C56.8981 270.248 56.7711 269.374 56.6611 268.52C56.6611 268.518 56.6611 268.516 56.6611 268.516C56.2291 265.103 56.1181 261.988 56.1181 261.988C56.1181 261.988 53.5431 253.159 59.0621 252.62C59.0621 252.62 61.0281 253.302 61.0941 253.457C62.0241 255.628 62.3901 261.163 62.4231 262.361C62.4481 263.334 63.8771 273.149 63.8981 273.495C63.9391 274.17 65.4061 277.708 66.1931 280.332C67.9101 286.048 68.8151 290.558 68.8151 290.558L63.9391 292.152Z" fill="#323657"/>
<path d="M77.8214 272.537H52.9434V294.299H77.8214V272.537Z" fill="#E2E3ED"/>
<path d="M70.4739 283.75H69.0889V290.441H70.4739V283.75Z" fill="#AAB1E0"/>
<path d="M72.3972 285.509H71.0132V290.442H72.3972V285.509Z" fill="#AAB1E0"/>
<path d="M74.3113 282.915H72.9263V290.442H74.3113V282.915Z" fill="#AAB1E0"/>
<path d="M72.105 292.953C72.105 292.953 71.961 295.886 70.385 296.394C68.809 296.902 67.093 296.448 66.367 296.003C65.641 295.558 63.814 294.267 64.496 293.455C66.685 290.85 72.105 292.953 72.105 292.953Z" fill="#EEA886"/>
<path d="M71.3022 295.667C71.3022 295.667 73.2702 295.811 73.1642 294.977C73.0582 294.142 71.6412 294.466 71.6412 294.466L71.3022 295.667Z" fill="#EEA886"/>
<path d="M64.4563 285.348H63.0723V290.442H64.4563V285.348Z" fill="#AAB1E0"/>
<path d="M66.428 284.835H65.043V290.442H66.428V284.835Z" fill="#AAB1E0"/>
<path d="M68.424 285.902H67.04V290.442H68.424V285.902Z" fill="#AAB1E0"/>
<path d="M62.4192 285.902H61.0332V290.442H62.4192V285.902Z" fill="#AAB1E0"/>
<path d="M56.1532 282.545C56.1652 282.565 56.1772 282.582 56.1922 282.601L56.1352 282.638L54.6522 283.64L54.6152 283.583L56.0982 282.582L56.1532 282.545Z" fill="#AAB1E0"/>
<path d="M61.5052 282.832C61.5012 282.853 61.4992 282.876 61.4982 282.898L61.4312 282.891L57.1822 282.386L57.1152 282.377C57.1192 282.355 57.1222 282.333 57.1242 282.311L57.1912 282.318L61.4382 282.823L61.5052 282.832Z" fill="#AAB1E0"/>
<path d="M65.6773 279.655L65.6273 279.699L62.4753 282.557L62.4253 282.602C62.4113 282.585 62.3963 282.569 62.3813 282.552L62.4313 282.507L65.5833 279.649L65.6333 279.605C65.6463 279.622 65.6613 279.639 65.6773 279.655Z" fill="#AAB1E0"/>
<path d="M70.8271 279.28C70.8271 279.292 70.8271 279.302 70.8281 279.314H66.5601C66.5611 279.302 66.5611 279.292 66.5611 279.28C66.5611 279.27 66.5611 279.258 66.5601 279.247H70.8281C70.8271 279.257 70.8271 279.27 70.8271 279.28Z" fill="#AAB1E0"/>
<path d="M74.5033 275.891L71.7703 278.87L71.7243 278.92C71.7083 278.903 71.6923 278.889 71.6753 278.874L71.7203 278.824L74.4533 275.845L74.5033 275.891Z" fill="#AAB1E0"/>
<path d="M56.6031 281.695C56.2791 281.695 56.0151 281.958 56.0151 282.283C56.0151 282.392 56.0451 282.495 56.0981 282.583C56.1101 282.603 56.1211 282.621 56.1351 282.639C56.2431 282.78 56.4131 282.871 56.6031 282.871C56.8931 282.871 57.1331 282.661 57.1821 282.387C57.1861 282.364 57.1881 282.342 57.1911 282.32C57.1911 282.308 57.1921 282.296 57.1921 282.284C57.1921 281.957 56.9281 281.695 56.6031 281.695ZM57.1151 282.378C57.0711 282.62 56.8581 282.804 56.6031 282.804C56.4351 282.804 56.2871 282.725 56.1911 282.602C56.1771 282.583 56.1641 282.566 56.1521 282.546C56.1081 282.469 56.0811 282.379 56.0811 282.283C56.0811 281.995 56.3141 281.762 56.6021 281.762C56.8901 281.762 57.1231 281.995 57.1231 282.283C57.1231 282.293 57.1231 282.303 57.1231 282.312C57.1231 282.334 57.1201 282.356 57.1151 282.378Z" fill="#AAB1E0"/>
<path d="M62.4752 282.557C62.4612 282.539 62.4472 282.524 62.4312 282.507C62.3252 282.403 62.1782 282.337 62.0182 282.337C61.7282 282.337 61.4872 282.548 61.4382 282.823C61.4352 282.845 61.4322 282.867 61.4312 282.89C61.4302 282.902 61.4302 282.913 61.4302 282.926C61.4302 283.249 61.6932 283.514 62.0182 283.514C62.3432 283.514 62.6052 283.249 62.6052 282.926C62.6052 282.787 62.5572 282.658 62.4752 282.557ZM62.0182 283.448C61.7302 283.448 61.4972 283.215 61.4972 282.927C61.4972 282.917 61.4972 282.907 61.4982 282.898C61.4992 282.876 61.5012 282.853 61.5052 282.832C61.5492 282.59 61.7632 282.406 62.0182 282.406C62.1592 282.406 62.2862 282.462 62.3812 282.552C62.3972 282.569 62.4122 282.585 62.4252 282.602C62.4962 282.691 62.5392 282.803 62.5392 282.927C62.5392 283.214 62.3052 283.448 62.0182 283.448Z" fill="#AAB1E0"/>
<path d="M66.6271 279.247C66.6101 278.938 66.3541 278.692 66.0401 278.692C65.7151 278.692 65.4521 278.957 65.4521 279.28C65.4521 279.42 65.5011 279.549 65.5821 279.649C65.5961 279.667 65.6111 279.683 65.6261 279.699C65.7331 279.804 65.8791 279.869 66.0391 279.869C66.3521 279.869 66.6081 279.623 66.6261 279.314C66.6271 279.302 66.6271 279.292 66.6271 279.28C66.6281 279.27 66.6281 279.257 66.6271 279.247ZM66.0401 279.801C65.8991 279.801 65.7721 279.745 65.6771 279.654C65.6611 279.638 65.6461 279.621 65.6331 279.604C65.5621 279.515 65.5201 279.402 65.5201 279.279C65.5201 278.992 65.7531 278.758 66.0411 278.758C66.3171 278.758 66.5441 278.973 66.5611 279.245C66.5621 279.256 66.5621 279.268 66.5621 279.278C66.5621 279.29 66.5621 279.3 66.5611 279.312C66.5431 279.585 66.3161 279.801 66.0401 279.801Z" fill="#AAB1E0"/>
<path d="M71.7703 278.871C71.7543 278.854 71.7383 278.841 71.7203 278.825C71.6193 278.742 71.4903 278.692 71.3483 278.692C71.0353 278.692 70.7783 278.938 70.7603 279.247C70.7603 279.258 70.7593 279.27 70.7593 279.28C70.7593 279.292 70.7603 279.302 70.7603 279.314C70.7783 279.623 71.0353 279.869 71.3483 279.869C71.6723 279.869 71.9363 279.605 71.9363 279.28C71.9363 279.121 71.8733 278.977 71.7703 278.871ZM71.3483 279.801C71.0713 279.801 70.8453 279.585 70.8283 279.314C70.8273 279.302 70.8273 279.292 70.8273 279.28C70.8273 279.27 70.8273 279.258 70.8283 279.247C70.8453 278.975 71.0713 278.76 71.3483 278.76C71.4713 278.76 71.5853 278.804 71.6753 278.875C71.6923 278.89 71.7083 278.903 71.7243 278.921C71.8143 279.015 71.8693 279.142 71.8693 279.28C71.8693 279.567 71.6363 279.801 71.3483 279.801Z" fill="#AAB1E0"/>
<path d="M24.6521 292.567C24.6521 292.567 23.7971 294.058 22.7831 294.029C21.9201 294.005 20.7681 294.557 20.4121 294.727C19.9361 294.954 18.2181 295.148 18.4991 295.705C18.7791 296.264 21.3441 295.514 21.9111 295.456C22.4801 295.399 21.0011 297.39 21.0301 297.944C21.0581 298.5 24.6321 300.512 25.4821 299.041C26.3321 297.57 26.2221 295.5 26.4261 295.268C26.6291 295.036 27.0881 294.218 27.0881 294.218L24.6521 292.567Z" fill="#EEA886"/>
<path d="M21.1433 297.558C21.1433 297.558 18.8543 302.217 18.9753 302.64C19.0963 303.062 19.3683 303.157 19.6013 302.729C19.8343 302.302 21.9493 298.283 21.9493 298.283C21.9493 298.283 20.2133 304.197 20.2303 304.566C20.2403 304.782 20.7553 304.994 20.9023 304.774C21.0493 304.555 23.1243 298.777 23.1243 298.777C23.1243 298.777 21.5133 304.3 21.6263 304.602C21.7253 304.866 22.2523 304.947 22.4013 304.543C22.5513 304.141 24.3513 299.085 24.3513 299.085C24.3513 299.085 23.4453 303.167 23.7033 303.364C23.8603 303.485 24.2953 303.687 24.4933 302.628C24.6933 301.569 25.4393 299.108 25.4393 299.108L21.1433 297.558Z" fill="#EEA886"/>
<path d="M64.0753 358.07C64.0753 358.07 66.1983 360.44 68.3523 360.936C70.5073 361.432 72.0143 362.066 72.0293 363.425C72.0463 364.785 65.8293 365.681 63.3643 364.31C59.6843 362.265 59.3103 362.881 58.9023 361.86C58.4933 360.837 59.3923 358.102 59.3653 357.776C59.3333 357.375 64.0753 358.07 64.0753 358.07Z" fill="#202338"/>
<path d="M63.837 356.937C63.837 356.937 64.117 358.047 64.075 358.07C64.033 358.094 59.221 358.668 59.366 357.776C59.484 357.053 59.653 356.27 59.653 356.27L63.837 356.937Z" fill="#81807E"/>
<path d="M42.3591 357.547C42.3591 357.547 42.5611 358.606 42.5211 358.631C42.4821 358.656 37.6411 359.522 37.6681 358.643C37.6891 357.944 38.1151 357.13 38.1151 357.13L42.3591 357.547Z" fill="#81807E"/>
<path d="M59.4599 290.489C59.4599 290.489 61.2109 307.489 62.1209 313.309C63.1849 320.113 63.5459 325.735 63.8429 329.257C64.2169 333.687 64.2889 355.477 64.5499 356.773C64.8109 358.068 58.7509 357.13 58.7509 357.13C58.7509 357.13 55.7709 328.658 54.6579 323.94C53.6229 319.548 49.7799 300.635 48.8349 301.836C47.8909 303.034 46.7179 323.905 46.0189 327.369C45.3189 330.834 43.1909 357.957 43.1909 357.957C43.1909 357.957 38.3669 358.918 37.0849 357.832C37.0849 357.832 36.5019 334.457 36.9469 327.961C37.1169 325.486 34.0479 298.282 37.9839 287.329C40.0639 281.542 59.4599 290.489 59.4599 290.489Z" fill="#292C47"/>
<path d="M25.2949 292.881C25.2949 292.881 26.6109 294.402 27.8469 294.175C29.0849 293.947 34.2569 278.178 34.3059 275.021C34.3429 272.461 35.7439 265.703 35.7439 265.703C35.7439 265.703 35.7439 265.708 35.7459 265.715C35.7479 265.717 35.7479 265.721 35.7479 265.723C35.7479 265.727 35.7489 265.73 35.7489 265.735C35.8879 266.241 37.7789 273.255 37.8449 276.625C37.9139 280.122 37.6359 292.153 37.6359 292.153L42.3199 293.407L57.2809 293.547L60.6959 292.154C60.6959 292.154 60.3219 288.285 60.1829 285.568C60.0969 283.841 59.7619 280.749 59.8479 277.738C59.8479 277.738 59.7939 274.563 60.1089 273.195C60.1419 267.161 60.5079 261.184 60.5079 261.184C60.7109 258.447 60.8519 255.89 60.9329 253.502C60.2719 253.153 59.4789 252.745 58.8439 252.442C56.8779 251.506 54.1399 250.247 52.3829 249.44C51.3539 248.966 50.3469 248.622 50.3469 248.622C50.3469 248.622 43.3239 247.95 42.7539 247.984C42.5739 247.996 41.6959 248.301 40.5449 248.741C38.0539 249.685 33.2529 251.61 32.4879 252.16C31.3659 252.963 28.9959 272.038 28.8889 273.372C28.6949 275.778 25.2949 292.881 25.2949 292.881Z" fill="#DBD8E3"/>
<path d="M60.2443 290.874C60.2443 290.874 49.9673 291.749 40.9653 290.874V293.828C40.9653 293.828 54.3703 295.107 60.6953 293.265L60.2443 290.874Z" fill="#1D2033"/>
<path d="M51.479 249.05C51.479 249.05 53.15 252.978 54.404 261.757C54.887 265.128 55.78 270.803 56.428 276.596V276.599C56.941 281.164 58.109 285.851 58.48 289.346C58.864 292.967 60.022 303.636 60.022 303.636L62.833 301.864C63.235 301.493 63.797 301.01 63.634 300.489C62.862 297.993 61.382 289.741 60.509 282.55C60.509 282.544 60.506 282.541 60.506 282.535C60.465 282.187 60.423 281.845 60.384 281.503C60.382 281.486 60.381 281.469 60.379 281.449C60.213 280.011 60.076 278.632 59.979 277.37C59.905 276.403 59.972 275.457 60.105 274.533C60.497 268.078 60.691 261.272 60.691 261.272C60.897 258.486 61.015 255.881 61.094 253.456C61.095 253.457 52.277 249.289 51.479 249.05Z" fill="#323657"/>
<path d="M34.5203 275.166C34.3013 278.095 28.9443 295.194 28.2323 295.119C26.9813 294.988 22.7783 293.664 22.7783 293.664C22.7783 293.664 27.9543 276.279 28.1363 274.449C28.2683 273.115 30.3913 253.112 31.5133 252.309C32.1603 251.845 36.9573 250.144 39.3113 249.216C39.7423 249.046 41.1603 248.512 41.5453 248.366C42.0453 248.922 45.5363 252.701 46.7513 267.051C46.9563 269.47 46.3093 274.591 45.8773 278.772C45.4173 283.232 44.9063 286.712 44.5313 290.441C43.7943 297.791 43.2783 303.636 43.2783 303.636L35.9663 300.381C34.7833 299.787 33.1443 297.359 33.5893 296.113C35.2793 291.378 37.4093 283.287 37.4113 279.133C37.4113 279.133 36.5953 268.959 35.9493 266.723C35.9503 266.723 34.7963 271.441 34.5203 275.166Z" fill="#323657"/>
<path d="M47.1009 230.134C47.1009 230.134 54.4319 227.421 53.9749 237.164C53.5169 246.906 51.7979 247.895 46.9759 246.536C42.1529 245.175 41.7489 239.025 41.1209 236.068C40.4919 233.111 44.7029 230.559 47.1009 230.134Z" fill="#EEA886"/>
<path d="M42.1393 240.901C42.1393 240.901 42.1193 238.299 43.2013 238.058C44.2833 237.819 44.8413 239.324 44.8413 239.324L45.7133 239.277C45.7133 239.277 44.9333 236.64 45.9653 236.035C46.9963 235.43 53.1703 235.961 53.9443 235.074C54.7183 234.186 53.5953 228.912 51.9113 228.395C50.2273 227.877 45.6263 226.827 42.7053 229.428C42.7053 229.428 40.1643 229.477 40.0623 231.545C39.9603 233.615 41.2583 239.49 42.1393 240.901Z" fill="#434343"/>
<path d="M44.4252 236.954C44.1012 236.096 42.2732 236.204 42.4602 237.564C42.6482 238.925 44.1592 241.022 44.7662 240.628C45.3732 240.236 44.8722 238.138 44.4252 236.954Z" fill="#EEA886"/>
<path d="M43.4021 248.732C43.4021 248.732 44.0491 248.198 43.1211 243.32C42.8731 242.014 50.0041 244.878 50.0041 244.878C50.0041 244.878 49.9471 245.948 49.9531 247.02C49.9551 247.5 49.9711 247.98 50.0121 248.367C50.0401 248.657 50.2111 249.167 50.2731 249.307C50.5941 250.051 46.0381 250.619 43.4021 248.732Z" fill="#EEA987"/>
<path d="M50.011 248.367C45.731 248.311 44.354 245.057 44.313 244.955C46.567 247.24 49.952 247.02 49.952 247.02C49.954 247.5 49.97 247.98 50.011 248.367Z" fill="#A77860"/>
<path d="M48.2881 251.257L49.5851 252.999C49.5851 252.999 48.8251 254.019 47.4751 253.266L48.2881 251.257Z" fill="#5282FC"/>
<path d="M49.215 253.07C49.215 253.07 54.028 271.602 53.036 286.028L51.417 288.881L49.901 285.891C49.901 285.891 49.486 260.089 48.166 253.024L49.215 253.07Z" fill="url(#paint15_linear)"/>
<path d="M49.6771 249.631L48.2871 251.257C48.2871 251.257 46.0571 250.824 45.4021 249.659C44.7481 248.495 49.6771 249.631 49.6771 249.631Z" fill="#EEA987"/>
<path d="M49.9961 248.209C49.9961 248.209 49.8351 249.448 48.2881 251.258L49.9761 253.526L50.8901 248.821L49.9961 248.209Z" fill="#C4C1CC"/>
<path d="M43.6092 246.941C43.6092 246.941 46.0332 250.366 48.2882 251.257L47.2402 253.85L42.4482 248.058L43.6092 246.941Z" fill="#C4C1CC"/>
<path d="M397.755 358.957L391.831 319.548L392.972 319.372L398.898 358.782L397.755 358.957Z" fill="#5C5049"/>
<path d="M390.522 358.957L384.594 319.548L385.736 319.372L391.661 358.782L390.522 358.957Z" fill="#5C5049"/>
<path d="M354.88 358.957L353.739 358.782L359.665 319.372L360.806 319.548L354.88 358.957Z" fill="#5C5049"/>
<path d="M393.685 319.949L398.327 271.113C398.327 271.113 390.211 270.052 385.304 270.313L377.931 319.949H393.685Z" fill="#FAB46C"/>
<path d="M393.685 317.467H377.93V319.948H393.685V317.467Z" fill="#FAB46C"/>
<path d="M367.623 317.96L365.161 271.421C365.161 271.421 385.707 269.191 398.327 271.113L367.623 317.96Z" fill="#FAB46C"/>
<path d="M384.031 256.352C384.031 256.352 387.203 247.047 381.148 244.163C375.094 241.279 369.955 245.449 368.982 247.705C368.013 249.961 368.269 254.063 369.097 256.925C369.925 259.784 369.803 264.141 368.006 265.596C366.206 267.054 363.975 269.472 364.086 274.397C364.155 277.452 376.106 266.583 376.106 266.583L384.031 256.352Z" fill="#FCCCA2"/>
<path d="M375.952 356.47C375.952 356.47 375.764 363.045 376.703 363.441C377.641 363.837 381.196 361.55 382.764 359.29C384.33 357.028 380.798 351.767 380.218 348.862C379.977 347.646 377.214 345.46 375.868 346.087C374.521 346.713 373.539 348.318 373.539 348.318C373.539 348.318 376.965 350.667 375.952 356.47Z" fill="#D4C3BD"/>
<path d="M373.54 348.318C373.54 348.318 374.706 350.562 375.306 352.303C375.907 354.044 376.019 358.864 376.397 359.199C376.774 359.535 379.752 358.032 380.149 356.23C380.544 354.427 379.337 350.823 378.19 348.928C377.04 347.032 375.87 346.085 375.87 346.085C375.87 346.085 373.838 346.482 373.54 348.318Z" fill="#DE9673"/>
<path d="M380.218 348.862L383.418 353.533L382.813 353.947L380.339 350.337L380.218 348.862Z" fill="#D4C3BD"/>
<path d="M368.701 297.227C368.701 297.227 370.264 299.869 368.701 301.792C367.136 303.715 356.615 308.999 356.692 312.053C356.769 315.105 358.698 319.883 359.389 321.095C360.083 322.307 362.638 327.336 363.964 330.279C365.292 333.223 372.968 347.304 374.468 350.478C375.968 353.653 375.046 337.782 375.046 337.782L367.369 315.274L385.303 297.803C385.303 297.803 383.133 292.971 368.701 297.227Z" fill="#DE9673"/>
<path d="M375.523 267.42C375.523 267.42 370.548 268.523 368.573 269.677C366.597 270.832 362.211 276.142 362.211 278.425C362.211 280.708 381.394 282.841 381.394 282.841L385.032 296.114C385.032 296.114 394.724 293.748 395.879 291.786C397.033 289.824 392.062 275.857 391.37 272.914C390.678 269.971 387.049 267.986 383.012 267.42C378.968 266.854 375.523 267.42 375.523 267.42Z" fill="#1B4D8F"/>
<path d="M387.286 297.663C387.286 297.663 386.938 299.933 387.864 300.895C388.786 301.856 393.04 307.465 390.788 312.975C388.719 318.036 384.707 317.94 384.707 317.94H378.501C378.501 317.94 380.302 327.047 379.722 333.049C379.137 339.052 376.4 352.757 376.343 353.45C376.285 354.141 373.718 356.307 372.969 355.21C372.969 355.21 372.899 346.957 372.495 343.841C372.09 340.725 370.37 328.259 369.852 326.412C369.331 324.565 366.274 318.967 366.274 318.39C366.274 317.814 363.286 308.778 369.807 306.47C376.327 304.162 378.634 297.71 387.286 297.663Z" fill="#EEA886"/>
<path d="M369.877 361.578C369.877 361.578 365.597 366.57 366.077 367.468C366.557 368.367 370.76 368.823 373.398 368.051C376.041 367.279 376.603 360.966 377.978 358.345C378.556 357.247 377.784 353.811 376.342 353.451C374.902 353.091 373.126 353.722 373.126 353.722C373.126 353.722 374.315 357.702 369.877 361.578Z" fill="#E6D3CC"/>
<path d="M373.127 353.721C373.127 353.721 372.623 356.199 371.994 357.929C371.366 359.659 368.42 363.478 368.503 363.977C368.586 364.474 371.848 365.179 373.29 364.027C374.731 362.876 376.06 359.315 376.356 357.119C376.655 354.923 376.342 353.451 376.342 353.451C376.342 353.451 374.514 352.481 373.127 353.721Z" fill="#EEA886"/>
<path d="M377.978 358.344L377.531 363.988L376.798 363.929L377.144 359.567L377.978 358.344Z" fill="#E6D3CC"/>
<path d="M390.788 312.975C388.834 318.103 384.707 317.94 384.707 317.94H378.501C378.501 317.94 375.91 313.836 369.568 313.13C368.164 312.974 366.574 312.985 364.788 313.244C364.766 313.248 364.745 313.251 364.724 313.253C356.299 314.502 357.926 317.594 357.952 317.675C357.252 315.965 356.516 313.247 356.693 311.782C357.502 305.114 367.137 303.715 368.702 301.792C370.265 299.868 368.702 297.227 368.702 297.227C383.135 292.971 385.305 297.803 385.305 297.803C385.938 297.715 387.559 296.781 388.249 296.778C388.249 296.778 388.97 298.354 389.479 299.778C389.927 301.035 392.906 307.413 390.788 312.975Z" fill="#1B4D8F"/>
<path d="M384.798 276.26L386.934 296.114H358.828L356.692 276.26H384.798Z" fill="#DED1C5"/>
<path d="M389.169 294.328H384.476V296.114H389.169V294.328Z" fill="#DED1C5"/>
<path d="M428.973 296.114H339.459V298.817H428.973V296.114Z" fill="#BC8551"/>
<path d="M378.634 245.749C378.634 245.749 384.931 247.612 384.031 256.352C383.131 265.089 379.018 264.641 378.634 264.705C378.247 264.77 373.363 265.09 371.822 254.488C370.281 243.886 378.634 245.749 378.634 245.749Z" fill="#EEA886"/>
<path d="M381.635 263.097C381.635 263.097 381.301 265.991 381.857 267.79C382.415 269.589 374.523 269.639 374.527 268.158C374.535 266.477 375.336 265.074 374.578 262.193C373.823 259.313 381.635 263.097 381.635 263.097Z" fill="#EEA886"/>
<path d="M377.009 249.646C377.009 249.646 380.428 255.089 384.031 256.352C384.031 256.352 385.998 247.218 377.877 245.305C369.756 243.392 371.027 254.53 371.634 257.499C371.633 257.499 373.324 253.13 377.009 249.646Z" fill="#FCCCA2"/>
<path d="M375.513 263.466C375.513 263.466 378.005 266.062 381.192 263.738C381.192 263.738 380.927 265.396 378.635 265.611C376.343 265.825 375.513 263.466 375.513 263.466Z" fill="#A77860"/>
<path d="M372.418 248.826C372.418 248.826 374.219 245.339 377.26 245.183C380.301 245.029 382.113 247.666 382.113 247.666C382.113 247.666 380.923 244.695 377.265 244.695C373.606 244.695 372.418 248.826 372.418 248.826Z" fill="#23344A"/>
<path d="M382.665 267.374C382.665 267.374 382.552 273.421 377.756 273.601C372.96 273.781 373.957 267.8 373.957 267.8C373.957 267.8 377.467 266.378 382.665 267.374Z" fill="#EEA886"/>
<path d="M428.972 298.817H426.984V367.042H428.972V298.817Z" fill="#807066"/>
<path d="M341.447 298.817H339.459V367.042H341.447V298.817Z" fill="#807066"/>
<path d="M266.484 310.753C266.484 310.753 264.961 312.085 263.597 314.134C262.231 316.183 258.605 316.292 258.45 319.089C258.294 321.886 263.38 321.972 266.048 321.062C268.719 320.152 269.123 317.42 270.736 316.736C272.351 316.053 273.189 315.501 273.067 314.168C272.94 312.835 272.047 310.67 272.047 310.67C272.047 310.67 271.043 310.99 270.454 311.056C269.864 311.12 267.88 311.143 266.484 310.753Z" fill="white"/>
<path d="M284.785 234.977C284.785 234.977 283.761 241.062 282.935 245.082C282.601 246.712 282.3 248.002 282.113 248.408C281.876 248.92 279.955 250.982 277.606 253.401C273.48 257.648 268.031 262.995 268.031 262.995L265.899 258.95C265.899 258.95 270.74 253.276 274.022 249.491C275.54 247.737 276.725 246.391 276.943 246.197C277.63 245.583 278.425 239.536 279.545 234.554C280.664 229.572 282.906 226.819 282.906 226.819L284.785 234.977Z" fill="#E64053"/>
<path d="M277.606 253.401C273.48 257.648 268.031 262.995 268.031 262.995L265.899 258.95C265.899 258.95 270.74 253.276 274.022 249.491C275.027 249.983 276.876 251.161 277.606 253.401Z" fill="#EEA886"/>
<path d="M304.055 309.086C304.055 309.086 305.455 310.635 306.284 311.573C307.114 312.512 310.285 314.191 310.302 316.979C310.322 320.002 307.961 319.738 305.864 319.627C303.764 319.517 302.059 318.067 301.176 316.355C300.289 314.643 297.939 314.193 297.773 312.812C297.609 311.432 298.864 308.946 298.864 308.946L304.055 309.086Z" fill="white"/>
<path d="M299.134 306.373L298.863 308.947C298.863 308.947 303.243 310.856 304.054 309.087L303.865 306.795L299.134 306.373Z" fill="#5F8CC9"/>
<path d="M266.722 308.89L266.484 310.753C266.484 310.753 269.131 311.687 272.048 310.669L272.106 309.012L266.722 308.89Z" fill="#5F8CC9"/>
<path d="M304.303 262.171C304.454 262.712 276.262 262.171 276.262 262.171C276.262 262.171 284.06 256.494 284.565 254.979C285.073 253.462 282.581 244.365 282.256 241.404C281.996 239.035 281.344 228.437 282.906 226.818C284.539 225.126 290.417 223.351 290.417 223.351L298.984 223.669C298.984 223.669 300.398 223.965 301.41 224.435C302.422 224.905 308.202 226.962 309.139 229.851C310.08 232.741 303.372 242.027 303.372 242.027C303.372 242.027 303.359 242.444 303.338 243.129C303.313 244.041 303.273 245.427 303.239 246.93C303.192 248.878 303.155 251.021 303.155 252.587C303.156 256.269 304.151 261.629 304.303 262.171Z" fill="#E64053"/>
<path d="M304.303 262.171C304.303 262.171 308.138 267.803 308.192 271.649C308.247 275.494 306.772 286.155 306.664 288.267C306.556 290.378 304.568 307.981 304.568 307.981C304.568 307.981 303.035 309.407 298.431 307.619C298.431 307.619 297.414 290.928 297.306 289.141C297.198 287.354 297.198 279.122 296.168 277.931C295.139 276.74 288.912 273.003 288.102 272.299C287.289 271.596 273.135 274.973 271.656 275.358C267.814 276.354 269.564 283.034 270.414 286.029C271.836 291.041 273.077 309.136 273.077 309.136C273.077 309.136 270.341 310.301 265.763 309.317C265.763 309.317 256.768 276.642 256.478 273.393C256.19 270.143 256.048 264.787 278.215 260.712L304.303 262.171Z" fill="#1B4D8F"/>
<path d="M292.768 204.734C292.768 204.734 285.33 203.057 287.027 212.417C288.727 221.779 290.515 222.515 295.002 220.577C299.49 218.639 299.09 212.642 299.314 209.702C299.542 206.761 295.139 204.836 292.768 204.734Z" fill="#EEA886"/>
<path d="M290.798 225.754C290.798 225.754 294.093 229.246 299.301 226.072C299.301 226.072 298.136 218.504 298.748 214.818C299.361 211.13 291.956 220.529 291.956 220.529C292.053 220.58 292.116 220.932 292.131 221.431C292.144 221.856 292.123 222.388 292.056 222.932C291.902 224.159 291.519 225.454 290.798 225.754Z" fill="#EEA886"/>
<path d="M296.755 211.176C296.855 210.35 298.485 210.048 298.618 211.285C298.75 212.523 297.876 214.697 297.255 214.482C296.635 214.27 296.622 212.314 296.755 211.176Z" fill="#EEA886"/>
<path d="M298.952 214.504C298.952 214.504 298.761 211.555 297.682 211.463C296.606 211.37 296.442 212.559 296.442 212.559L295.352 212.764C295.352 212.764 295.697 210.179 294.62 209.728C293.544 209.276 287.652 211.151 286.788 210.392C285.924 209.633 286.331 204.389 287.891 203.671C289.453 202.954 293.768 201.346 296.927 203.485C296.927 203.485 299.39 203.204 299.755 205.191C300.119 207.179 299.623 213.027 298.952 214.504Z" fill="#3A3F47"/>
<path d="M292.055 222.933C297.426 221.277 297.829 218.043 297.835 217.993C296.067 221.032 292.13 221.433 292.13 221.433C292.143 221.857 292.123 222.389 292.055 222.933Z" fill="#A77860"/>
<path d="M301.498 224.475C301.498 224.475 297.564 232.305 291.211 231.8C284.856 231.294 290.128 223.424 290.417 223.351C290.732 223.271 296.934 221.727 301.498 224.475Z" fill="#EEA886"/>
<path d="M273.039 261.775C273.039 261.775 292.507 264.174 304.304 262.171L281.765 259.356C281.764 259.356 281.63 259.931 273.039 261.775Z" fill="#E64053"/>
<path d="M287.601 258.469L286.148 259.203C286.148 259.203 286.48 261.507 287.273 262.205L288.902 261.79C288.902 261.791 288.561 259.263 287.601 258.469Z" fill="#EEA886"/>
<path d="M310.13 253.752C309.839 254.088 306.012 255.626 301.687 257.292C295.781 259.568 289.116 261.721 289.116 261.721L287.602 258.47C287.602 258.47 294.579 254.679 299.294 252.02C301.52 250.763 303.243 249.759 303.486 249.529C304.244 248.805 304.439 247.648 303.883 245.629C303.325 243.609 302.041 234.328 301.897 233.245C301.752 232.162 302.258 229.273 304.965 229.129C307.672 228.984 309.052 229.749 309.052 229.749C309.052 229.749 309.731 230.03 310.236 236.602C310.743 243.172 310.814 252.957 310.13 253.752Z" fill="#E64053"/>
<path d="M303.338 243.128C303.313 244.04 303.273 245.426 303.239 246.929C300.596 240.452 302.123 235.282 302.148 235.195C301.864 236.953 303.318 243.041 303.338 243.128Z" fill="#A32D3B"/>
<path d="M282.935 245.082C282.601 246.712 282.3 248.002 282.113 248.408C281.21 244.04 282.022 238.447 282.022 238.447C282.144 241.119 282.935 245.082 282.935 245.082Z" fill="#A32D3B"/>
<path d="M301.686 257.292C295.78 259.568 288.902 261.791 288.902 261.791L287.601 258.47C287.601 258.47 294.578 254.679 299.293 252.02C299.293 252.019 301.008 252.853 301.686 257.292Z" fill="#EEA886"/>
<path d="M287.18 261.983L259.508 261.575L273.477 268.67L287.18 261.983Z" fill="#5E5853"/>
<path d="M273.477 268.67L287.18 263.363V261.983L272.395 267.317L273.477 268.67Z" fill="#91887F"/>
<path d="M286.463 259.253C286.463 259.253 284.734 258.986 283.539 258.706C282.614 258.491 280.314 258.787 279.729 259.381C279.142 259.974 277.281 264.109 276.93 264.361C276.576 264.612 277.109 265.197 277.728 264.903C277.728 264.903 278.296 266.712 279.697 266.036C281.1 265.358 282.051 263.879 282.784 263.619C283.518 263.358 287.793 262.045 287.793 262.045C287.793 262.045 287.564 258.813 286.463 259.253Z" fill="#EEA886"/>
<path d="M280.152 259.111C280.152 259.111 279.043 259.646 278.752 259.886C278.464 260.124 277.288 261.004 277.003 261.211C276.719 261.418 277.432 262.006 279.532 261.096C281.633 260.187 280.152 259.111 280.152 259.111Z" fill="#EEA886"/>
<path d="M273.477 268.67L265.248 246.197L238.712 246.629L246.557 267.34L273.477 268.67Z" fill="#6E6760"/>
<path d="M256.204 260.051C257.315 259.495 257.56 257.732 256.75 256.113C255.941 254.494 254.384 253.632 253.272 254.187C252.161 254.743 251.916 256.506 252.726 258.125C253.535 259.745 255.093 260.607 256.204 260.051Z" fill="#807066"/>
<defs>
<linearGradient id="paint0_linear" x1="410.822" y1="358.703" x2="410.822" y2="370.293" gradientUnits="userSpaceOnUse">
<stop stop-color="#03C4D7"/>
<stop offset="1" stop-color="#8AE4B6"/>
</linearGradient>
<linearGradient id="paint1_linear" x1="475.265" y1="320.87" x2="474.743" y2="314.694" gradientUnits="userSpaceOnUse">
<stop stop-color="#03C4D7"/>
<stop offset="1" stop-color="#8AE4B6"/>
</linearGradient>
<linearGradient id="paint2_linear" x1="449.715" y1="304.154" x2="459.172" y2="318.188" gradientUnits="userSpaceOnUse">
<stop stop-color="#03C4D7"/>
<stop offset="1" stop-color="#8AE4B6"/>
</linearGradient>
<linearGradient id="paint3_linear" x1="459.955" y1="267.225" x2="501.879" y2="306.684" gradientUnits="userSpaceOnUse">
<stop stop-color="#03C4D7"/>
<stop offset="1" stop-color="#8AE4B6"/>
</linearGradient>
<linearGradient id="paint4_linear" x1="100.513" y1="358.703" x2="100.513" y2="370.293" gradientUnits="userSpaceOnUse">
<stop stop-color="#03C4D7"/>
<stop offset="1" stop-color="#8AE4B6"/>
</linearGradient>
<radialGradient id="paint5_radial" cx="0" cy="0" r="1" gradientUnits="userSpaceOnUse" gradientTransform="translate(231.815 61.1982) scale(174.732 174.732)">
<stop offset="0.0078" stop-color="#FFDD91"/>
<stop offset="0.9948" stop-color="#FFE655"/>
</radialGradient>
<linearGradient id="paint6_linear" x1="149.888" y1="144.873" x2="361.082" y2="144.873" gradientUnits="userSpaceOnUse">
<stop stop-color="#E0E0E0"/>
<stop offset="1" stop-color="#FF556F"/>
</linearGradient>
<linearGradient id="paint7_linear" x1="231.084" y1="141.93" x2="231.084" y2="252.163" gradientUnits="userSpaceOnUse">
<stop offset="0.0078" stop-color="#FFDD91"/>
<stop offset="1" stop-color="white"/>
</linearGradient>
<linearGradient id="paint8_linear" x1="283.58" y1="141.929" x2="283.58" y2="252.163" gradientUnits="userSpaceOnUse">
<stop offset="0.0078" stop-color="#FFDD91"/>
<stop offset="1" stop-color="white"/>
</linearGradient>
<linearGradient id="paint9_linear" x1="257.235" y1="141.928" x2="257.235" y2="252.165" gradientUnits="userSpaceOnUse">
<stop offset="0.0078" stop-color="#FFDD91"/>
<stop offset="1" stop-color="white"/>
</linearGradient>
<linearGradient id="paint10_linear" x1="201.231" y1="276.027" x2="308.857" y2="276.027" gradientUnits="userSpaceOnUse">
<stop stop-color="#40D5E6"/>
<stop offset="1" stop-color="#5577FF"/>
</linearGradient>
<linearGradient id="paint11_linear" x1="255.045" y1="272.043" x2="255.045" y2="332.653" gradientUnits="userSpaceOnUse">
<stop stop-color="#03C4D7"/>
<stop offset="1" stop-color="#8AE4B6"/>
</linearGradient>
<linearGradient id="paint12_linear" x1="261.048" y1="276.635" x2="292.669" y2="350.236" gradientUnits="userSpaceOnUse">
<stop stop-color="#03C4D7"/>
<stop offset="1" stop-color="#8AE4B6"/>
</linearGradient>
<linearGradient id="paint13_linear" x1="86.8849" y1="251.133" x2="109.659" y2="259.989" gradientUnits="userSpaceOnUse">
<stop stop-color="#03C4D7"/>
<stop offset="1" stop-color="#8AE4B6"/>
</linearGradient>
<linearGradient id="paint14_linear" x1="121.565" y1="232.212" x2="121.565" y2="300.524" gradientUnits="userSpaceOnUse">
<stop stop-color="#03C4D7"/>
<stop offset="1" stop-color="#8AE4B6"/>
</linearGradient>
<linearGradient id="paint15_linear" x1="50.6684" y1="253.024" x2="50.6684" y2="288.881" gradientUnits="userSpaceOnUse">
<stop stop-color="#03C4D7"/>
<stop offset="1" stop-color="#8AE4B6"/>
</linearGradient>
</defs>
</svg>
