<svg width="471" height="291" viewBox="0 0 471 291" fill="none" xmlns="http://www.w3.org/2000/svg">
<path opacity="0.34" d="M73.5464 0H45.7793V4.45786H73.5464V0Z" fill="url(#paint0_linear)"/>
<path opacity="0.34" d="M85.1662 8.24023H45.7793V12.6981H85.1662V8.24023Z" fill="url(#paint1_linear)"/>
<path d="M46.5944 17.6028H44.9639V231.172H46.5944V17.6028Z" fill="url(#paint2_linear)"/>
<path d="M162.522 17.6028H160.892V231.172H162.522V17.6028Z" fill="url(#paint3_linear)"/>
<path d="M278.451 17.6028H276.82V231.172H278.451V17.6028Z" fill="url(#paint4_linear)"/>
<path d="M394.378 17.6028H392.748V231.172H394.378V17.6028Z" fill="url(#paint5_linear)"/>
<path d="M193.057 0H160.458V4.45786H193.057V0Z" fill="url(#paint6_linear)"/>
<path d="M181.302 8.24023H160.458V12.6981H181.302V8.24023Z" fill="url(#paint7_linear)"/>
<path d="M298.652 0H278.451V4.45786H298.652V0Z" fill="url(#paint8_linear)"/>
<path d="M301.996 8.24023H278.451V12.6981H301.996V8.24023Z" fill="url(#paint9_linear)"/>
<path d="M423.804 0H394.378V4.45786H423.804V0Z" fill="url(#paint10_linear)"/>
<path d="M417.924 8.24023H394.378V12.6981H417.924V8.24023Z" fill="url(#paint11_linear)"/>
<path d="M64.2234 238.13H45.7793V244.074H64.2234V238.13Z" fill="url(#paint12_linear)"/>
<path d="M180.152 236.243H161.708V242.187H180.152V236.243Z" fill="url(#paint13_linear)"/>
<path d="M296.895 236.243H278.451V242.187H296.895V236.243Z" fill="url(#paint14_linear)"/>
<path d="M412.823 236.243H394.378V242.187H412.823V236.243Z" fill="url(#paint15_linear)"/>
<g opacity="0.75">
<path opacity="0.75" d="M234.694 173.671C210.284 173.673 190.923 155.724 171.968 138.156C157.596 124.835 142.685 111.215 125.474 104.497C72.945 83.994 46.0712 121.432 45.8311 121.762V110.373C46.1147 109.984 50.9087 103.179 64.7771 96.6815C77.4032 90.7662 98.5878 86.0477 127.808 97.1587C146.321 104.198 161.696 118.448 176.564 132.23C206.726 160.185 232.774 184.328 278.011 146.511C312.274 117.869 344.572 90.5741 376.351 80.6024C407.434 70.8492 439.839 77.989 470.171 111.149L469.947 121.492C405.514 50.7416 350.652 95.5662 282.328 152.683C264.23 167.812 248.637 173.67 234.694 173.671Z" fill="url(#paint16_linear)"/>
</g>
<path d="M433.408 170.075C400.319 170.077 371.556 154.519 341.57 138.303C304.55 118.283 266.271 97.5828 215.269 103.251C182.701 106.87 162.259 121.294 144.224 134.02C127.893 145.542 112.454 155.675 91.5437 156.54C57.7507 157.939 46.0271 142.264 45.8311 141.309V131.25C45.8734 131.424 53.2515 149.016 91.5077 148.808C110.348 148.704 124.253 138.893 140.353 127.533C159.064 114.331 180.271 99.3678 214.546 95.5579C267.593 89.6621 306.811 110.87 344.736 131.379C384.42 152.839 422.288 172.965 470.171 155.504V163.774C456.523 168.751 445.606 170.074 433.408 170.075Z" fill="url(#paint17_linear)"/>
<path d="M149.407 144.282C149.371 144.282 145.805 144.315 140.83 143.375C136.238 142.508 129.467 140.612 123.286 136.504C117.166 132.436 109.23 131.012 103.649 130.534C97.597 130.015 92.9399 130.466 92.8935 130.471L92.855 130.086C92.9019 130.081 97.5946 129.627 103.683 130.148C109.307 130.63 117.312 132.068 123.5 136.182C129.624 140.252 136.338 142.133 140.892 142.993C145.832 143.927 149.367 143.896 149.402 143.895L149.407 144.282Z" fill="url(#paint18_linear)"/>
<path d="M153.841 146.566C149.762 151.172 132.435 154.018 122.152 148.646C116.468 145.677 111.961 142.206 107.984 139.144C102.8 135.153 98.3238 131.706 92.832 130.467L92.3516 130.359L92.7776 130.111C92.8575 130.065 100.904 125.461 112.389 124.692C119.136 124.241 125.734 125.18 132 127.484C139.828 130.362 147.155 135.39 153.778 142.427L153.637 142.559L153.778 142.427C154.944 143.666 155.045 145.002 154.069 146.289C153.998 146.382 153.922 146.475 153.841 146.566ZM93.4111 130.208C98.7602 131.554 103.155 134.938 108.22 138.838C112.184 141.89 116.678 145.35 122.331 148.303C126.975 150.729 133.649 151.684 140.64 150.921C146.559 150.275 151.665 148.44 153.554 146.307C153.628 146.223 153.697 146.14 153.76 146.056C154.619 144.923 154.531 143.791 153.496 142.692C138.603 126.866 122.945 124.378 112.432 125.077C102.547 125.735 95.2318 129.255 93.4111 130.208Z" fill="url(#paint19_linear)"/>
<path d="M111.248 131.33L110.928 131.548L106.911 125.64L107.231 125.422L111.248 131.33Z" fill="url(#paint20_linear)"/>
<path d="M116.065 132.911L108.827 139.59L108.565 139.306L115.802 132.627L116.065 132.911Z" fill="url(#paint21_linear)"/>
<path d="M123.586 136.328L123.2 136.357L122.374 125.294L122.759 125.265L123.586 136.328Z" fill="url(#paint22_linear)"/>
<path d="M147.524 128.36C147.478 128.344 142.829 126.688 136.91 122.625C131.449 118.876 123.752 112.252 118.097 101.98C111.542 90.0717 104.413 82.563 99.5857 78.3607C94.3565 73.8078 90.6292 72.0476 90.5923 72.0305L90.749 71.6936C90.7864 71.7111 94.5499 73.486 99.8154 78.0679C104.669 82.2911 111.836 89.8364 118.423 101.8C124.042 112.009 131.693 118.593 137.12 122.318C143 126.353 147.602 127.994 147.648 128.01L147.524 128.36Z" fill="url(#paint23_linear)"/>
<path d="M161.703 127.426L160.656 127.617C160.622 127.624 157.187 128.239 151.901 128.146C147.025 128.06 139.524 127.336 131.482 124.379C122.441 121.054 114.573 115.642 108.098 108.294C100.01 99.1146 94.0853 86.8714 90.4899 71.9055L90.4492 71.7371L90.6148 71.6851C90.6751 71.6663 96.7461 69.8127 104.681 71.7192C109.339 72.8383 113.722 75.0139 117.708 78.1858C122.684 82.1449 127.052 87.6763 130.689 94.6254C138.883 110.282 146.61 118.325 151.648 122.315C157.086 126.62 160.618 127.246 160.653 127.252L161.703 127.426ZM90.8927 71.9917C99.0198 105.602 117.505 118.839 131.594 124.025C139.587 126.966 147.044 127.687 151.891 127.774C155.577 127.84 158.354 127.56 159.696 127.384C158.305 126.945 155.376 125.74 151.417 122.606C146.35 118.593 138.584 110.512 130.359 94.7974C122.182 79.1733 111.835 73.8198 104.594 72.0801C97.4866 70.3723 91.912 71.7136 90.8927 71.9917Z" fill="url(#paint24_linear)"/>
<path d="M120.699 106.126L105.842 105.478L105.858 105.107L120.715 105.755L120.699 106.126Z" fill="url(#paint25_linear)"/>
<path d="M116.177 97.9715L115.806 97.972L115.784 77.1103L116.155 77.1099L116.177 97.9715Z" fill="url(#paint26_linear)"/>
<path d="M106.451 85.1376L94.4199 84.5085L94.4394 84.1377L106.471 84.767L106.451 85.1376Z" fill="url(#paint27_linear)"/>
<path d="M233.594 277.157H261.184V193.375H233.594V277.157Z" fill="#8F8F8F"/>
<path d="M140.984 233.734H353.793C360.816 233.734 366.51 228.042 366.51 221.021V78.4185C366.51 71.3972 360.816 65.7053 353.793 65.7053H140.984C133.961 65.7053 128.268 71.3972 128.268 78.4185V221.021C128.268 228.042 133.961 233.734 140.984 233.734Z" fill="#F0F0F0"/>
<path d="M309.451 273.995H185.327V280.32H309.451V273.995Z" fill="#CCCCCC"/>
<path d="M380.601 148.466C384.339 146.679 388.059 158.576 388.059 158.576C394.413 166.97 403.292 155.804 402.424 168.351C400.904 190.307 427.702 175.256 415.339 198.178C402.976 221.101 426.255 211.139 418.572 229.623C410.889 248.106 420.847 270.151 409.287 261.092C409.287 261.092 399.108 238.776 388.612 231.872C378.115 224.967 394.901 216.775 391.616 207.397C386.846 193.777 375.352 194.311 383.64 179.674C391.927 165.037 367.894 154.542 380.601 148.466Z" fill="url(#paint28_linear)"/>
<path d="M412.948 252.693C407.937 249.17 402.073 224.618 401.723 209.994C401.544 202.504 399.329 199.383 397.375 196.629C395.507 193.997 393.894 191.724 394.834 186.505C396.63 176.531 391.908 172.225 391.86 172.183L392.407 171.56C392.617 171.744 397.534 176.185 395.649 186.652C394.771 191.528 396.219 193.568 398.051 196.15C399.974 198.859 402.366 202.231 402.551 209.974C402.927 225.669 408.922 248.85 413.424 252.016L412.948 252.693Z" fill="white"/>
<path d="M414.822 254.513C414.176 254.513 413.473 254.439 412.703 254.284C410.772 253.893 409.506 252.875 408.94 251.256C407.589 247.394 410.719 241.12 413.259 238.096C413.301 238.045 417.553 232.85 417.099 225.649C417.023 224.443 416.898 223.325 416.787 222.34C416.468 219.49 416.237 217.431 417.461 216.056C418.54 214.844 420.623 214.32 424.425 214.302C431.094 214.27 433.731 211.51 435.849 209.292C436.749 208.35 437.599 207.46 438.631 206.897C441.955 205.083 445.475 204.816 447.002 206.263C447.726 206.95 448.339 208.296 447.138 210.806C446.04 213.1 444.617 214.552 443.473 215.719C441.934 217.289 440.917 218.326 441.446 220.394C441.57 220.879 441.713 221.37 441.857 221.861C442.885 225.377 444.05 229.361 438.033 232.065C436.756 232.639 435.592 233.096 434.566 233.498C430.365 235.147 427.829 236.141 424.967 242.182C424.413 243.352 423.924 244.46 423.45 245.532C421.194 250.646 419.486 254.513 414.822 254.513ZM439.029 207.624C438.109 208.126 437.34 208.931 436.449 209.864C434.222 212.195 431.45 215.097 424.429 215.13C420.933 215.146 418.975 215.602 418.08 216.607C417.102 217.706 417.315 219.611 417.611 222.248C417.723 223.242 417.849 224.37 417.926 225.597C418.401 233.138 414.078 238.407 413.894 238.628C411.38 241.621 408.532 247.579 409.722 250.983C410.185 252.306 411.243 253.144 412.868 253.472C418.535 254.617 420.1 251.072 422.692 245.198C423.167 244.121 423.659 243.007 424.217 241.828C427.221 235.49 430.022 234.391 434.263 232.728C435.281 232.328 436.435 231.875 437.693 231.31C443.053 228.901 442.086 225.595 441.062 222.094C440.915 221.593 440.77 221.094 440.643 220.6C439.998 218.081 441.27 216.782 442.881 215.14C444.039 213.958 445.352 212.618 446.39 210.449C446.935 209.311 447.383 207.766 446.431 206.864C445.179 205.678 441.997 206.004 439.029 207.624Z" fill="url(#paint29_linear)"/>
<path d="M412.793 259.296L411.966 259.253C412.006 258.475 413.05 240.152 420.409 234.79C428.481 228.907 431.027 222.585 432.239 218.341C433.667 213.34 440.937 212.004 441.247 211.95L441.39 212.766C441.32 212.778 434.322 214.067 433.036 218.569C431.79 222.93 429.176 229.426 420.897 235.46C413.854 240.592 412.803 259.11 412.793 259.296Z" fill="url(#paint30_linear)"/>
<path d="M429.618 166.957C424.388 165.164 425.474 175.242 423.264 182.699C421.054 190.156 398.679 185.952 408.071 204.625C417.463 223.297 396.193 210.869 402.546 227.163C408.9 243.458 403.099 260.885 410.005 256.452C416.91 252.019 413.884 231.5 421.067 229.062C428.249 226.624 429.421 223.781 422.31 217.152C415.199 210.524 440.944 203.944 434.59 190.56C428.237 177.176 435.661 169.029 429.618 166.957Z" fill="url(#paint31_linear)"/>
<path d="M413.209 255.671C412.551 252.882 406.935 228.333 412.176 225.366C416.795 222.751 416.681 212.578 415.96 202.973C415.323 194.47 426.245 190.496 426.711 190.331L426.988 191.112C426.88 191.15 416.196 195.04 416.787 202.911C417.527 212.776 417.606 223.244 412.584 226.087C408.604 228.34 412.268 248.069 414.016 255.481L413.209 255.671Z" fill="white"/>
<path d="M425.098 246.93L417.631 275.253H400.943L393.476 246.93H425.098Z" fill="url(#paint32_linear)"/>
<path d="M425.098 246.93C425.098 246.93 408.659 250.016 408.659 275.253H400.944L393.476 246.93H425.098Z" fill="url(#paint33_linear)"/>
<path d="M137.599 207.402L357.179 207.402V47.8215L137.599 47.8215L137.599 207.402Z" fill="white"/>
<path d="M137.599 67.096H357.179V47.8215H137.599V67.096Z" fill="url(#paint34_linear)"/>
<path d="M174.445 61.1004H150.412C148.4 61.1004 146.77 59.47 146.77 57.4586C146.77 55.4473 148.4 53.8171 150.412 53.8171H174.445C176.457 53.8171 178.088 55.4475 178.088 57.4586C178.088 59.47 176.457 61.1004 174.445 61.1004Z" fill="#F5F7FF"/>
<path d="M357.179 47.8215H137.599V207.402H357.179V47.8215Z" fill="white"/>
<path d="M357.179 47.8215H137.599V65.7541H357.179V47.8215Z" fill="url(#paint35_linear)"/>
<path d="M357.179 67.532H169.86C168.02 67.532 166.529 66.041 166.529 64.2014V55.7263H357.179V67.532Z" fill="url(#paint36_linear)"/>
<path d="M289.312 64.8798H174.01C172.014 64.8798 170.396 63.2622 170.396 61.2662C170.396 59.2704 172.014 57.6526 174.01 57.6526H289.312C291.308 57.6526 292.927 59.2702 292.927 61.2662C292.927 63.2622 291.308 64.8798 289.312 64.8798Z" fill="white"/>
<path d="M349.764 64.8798H302.866C300.87 64.8798 299.251 63.2622 299.251 61.2662C299.251 59.2704 300.87 57.6526 302.866 57.6526H349.764C351.76 57.6526 353.378 59.2702 353.378 61.2662C353.378 63.2622 351.76 64.8798 349.764 64.8798Z" fill="white"/>
<path d="M150.841 62.6967L150.346 62.2016L152.463 60.0855L150.226 57.8486L150.72 57.3535L153.454 60.0855L150.841 62.6967Z" fill="#FAFAFA"/>
<path d="M144.894 62.6967L142.161 59.9647L144.773 57.3535L145.268 57.8486L143.151 59.9647L145.389 62.2016L144.894 62.6967Z" fill="#FAFAFA"/>
<path d="M163.782 60.9326L162.664 59.1335L161.16 60.677L161.565 61.0714L162.25 60.3689C162.056 61.7129 160.951 62.6972 159.616 62.6972C158.143 62.6972 156.944 61.4986 156.944 60.0255C156.944 58.5522 158.143 57.3538 159.616 57.3538V56.7883C157.831 56.7883 156.378 58.2406 156.378 60.0257C156.378 61.8108 157.831 63.2629 159.616 63.2629C161.238 63.2629 162.581 62.0632 162.81 60.4406L163.301 61.2315L163.782 60.9326Z" fill="#FAFAFA"/>
<path d="M357.179 55.9973H340.092C338.622 55.9973 337.43 54.8058 337.43 53.3365V52.1618C337.43 50.6918 338.622 49.5005 340.092 49.5005H357.179V55.9973Z" fill="#FAFAFA"/>
<path d="M342.895 54.4868C343.855 54.4868 344.633 53.7087 344.633 52.749C344.633 51.7893 343.855 51.0112 342.895 51.0112C341.935 51.0112 341.157 51.7893 341.157 52.749C341.157 53.7087 341.935 54.4868 342.895 54.4868Z" fill="#E8E8E8"/>
<path d="M347.267 54.4868C348.227 54.4868 349.006 53.7087 349.006 52.749C349.006 51.7893 348.227 51.0112 347.267 51.0112C346.307 51.0112 345.529 51.7893 345.529 52.749C345.529 53.7087 346.307 54.4868 347.267 54.4868Z" fill="#E8E8E8"/>
<path d="M351.64 54.4868C352.599 54.4868 353.378 53.7087 353.378 52.749C353.378 51.7893 352.599 51.0112 351.64 51.0112C350.68 51.0112 349.901 51.7893 349.901 52.749C349.901 53.7087 350.68 54.4868 351.64 54.4868Z" fill="#DA5E5E"/>
<path d="M329.748 54.4867H142.502C139.794 54.4867 137.599 52.2917 137.599 49.5841V47.8215H334.652V49.5841C334.652 52.2915 332.456 54.4867 329.748 54.4867Z" fill="url(#paint37_linear)"/>
<path d="M288.744 84.0999H215.878V89.4244H288.744V84.0999Z" fill="#E6E6E6"/>
<path d="M346.787 93.6895H215.878V99.0139H346.787V93.6895Z" fill="#E6E6E6"/>
<path opacity="0.5" d="M212.21 84.0999H208.317V99.014H212.21V84.0999Z" fill="url(#paint38_linear)"/>
<path d="M309.027 116.603H215.878V121.928H309.027V116.603Z" fill="#E6E6E6"/>
<path d="M329.623 126.193H215.878V131.518H329.623V126.193Z" fill="#E6E6E6"/>
<path opacity="0.5" d="M212.21 116.603H208.317V131.518H212.21V116.603Z" fill="url(#paint39_linear)"/>
<path d="M198.42 107.808L153.453 81.8528V133.764L198.42 107.808Z" fill="url(#paint40_linear)"/>
<path d="M185.347 185.772H170.982V187.541H185.347V185.772Z" fill="#D6D6D6"/>
<path d="M188.832 182.62H167.497V184.39H188.832V182.62Z" fill="#D6D6D6"/>
<path d="M178.196 162.041C180.245 162.041 181.906 160.38 181.906 158.332C181.906 156.284 180.245 154.624 178.196 154.624C176.148 154.624 174.487 156.284 174.487 158.332C174.487 160.38 176.148 162.041 178.196 162.041Z" fill="url(#paint41_linear)"/>
<path d="M184.888 170.422V177.474C182.839 178.406 180.561 178.923 178.164 178.923C175.767 178.923 173.489 178.405 171.441 177.474V170.422C171.441 166.71 174.45 163.7 178.164 163.7C181.878 163.7 184.888 166.71 184.888 170.422Z" fill="url(#paint42_linear)"/>
<path d="M178.164 179.364C175.755 179.364 173.431 178.863 171.258 177.875C165.303 175.169 161.455 169.197 161.455 162.659C161.455 153.447 168.951 145.953 178.165 145.953C187.378 145.953 194.874 153.447 194.874 162.659C194.874 169.197 191.026 175.169 185.07 177.875C182.898 178.863 180.574 179.364 178.164 179.364ZM178.164 146.835C169.437 146.835 162.337 153.934 162.337 162.659C162.337 168.852 165.982 174.51 171.623 177.073C173.681 178.008 175.881 178.483 178.164 178.483C180.447 178.483 182.648 178.008 184.705 177.073C190.346 174.51 193.992 168.852 193.992 162.659C193.992 153.934 186.891 146.835 178.164 146.835Z" fill="url(#paint43_linear)"/>
<path d="M233.462 185.772H219.097V187.541H233.462V185.772Z" fill="#D6D6D6"/>
<path d="M236.948 182.62H215.612V184.39H236.948V182.62Z" fill="#D6D6D6"/>
<path d="M226.312 162.041C228.361 162.041 230.021 160.38 230.021 158.332C230.021 156.284 228.361 154.624 226.312 154.624C224.264 154.624 222.603 156.284 222.603 158.332C222.603 160.38 224.264 162.041 226.312 162.041Z" fill="url(#paint44_linear)"/>
<path d="M233.003 170.422V177.474C230.955 178.406 228.677 178.923 226.28 178.923C223.883 178.923 221.605 178.405 219.557 177.474V170.422C219.557 166.71 222.565 163.7 226.28 163.7C229.994 163.7 233.003 166.71 233.003 170.422Z" fill="url(#paint45_linear)"/>
<path d="M226.28 179.364C223.87 179.364 221.546 178.863 219.374 177.875C213.418 175.169 209.57 169.197 209.57 162.659C209.57 153.447 217.066 145.953 226.28 145.953C235.493 145.953 242.989 153.447 242.989 162.659C242.989 169.197 239.141 175.169 233.185 177.875C231.013 178.863 228.689 179.364 226.28 179.364ZM226.28 146.835C217.552 146.835 210.452 153.934 210.452 162.659C210.452 168.852 214.097 174.51 219.739 177.073C221.796 178.008 223.997 178.483 226.28 178.483C228.563 178.483 230.763 178.008 232.82 177.073C238.462 174.51 242.107 168.852 242.107 162.659C242.107 153.934 235.007 146.835 226.28 146.835Z" fill="url(#paint46_linear)"/>
<path d="M281.578 185.772H267.213V187.541H281.578V185.772Z" fill="#D6D6D6"/>
<path d="M285.063 182.62H263.728V184.39H285.063V182.62Z" fill="#D6D6D6"/>
<path d="M274.427 162.041C276.476 162.041 278.137 160.38 278.137 158.332C278.137 156.284 276.476 154.624 274.427 154.624C272.379 154.624 270.718 156.284 270.718 158.332C270.718 160.38 272.379 162.041 274.427 162.041Z" fill="url(#paint47_linear)"/>
<path d="M281.119 170.422V177.474C279.07 178.406 276.793 178.923 274.395 178.923C271.998 178.923 269.72 178.405 267.672 177.474V170.422C267.672 166.71 270.681 163.7 274.395 163.7C278.11 163.7 281.119 166.71 281.119 170.422Z" fill="url(#paint48_linear)"/>
<path d="M274.395 179.364C271.986 179.364 269.662 178.863 267.489 177.875C261.534 175.169 257.686 169.197 257.686 162.659C257.686 153.447 265.182 145.953 274.395 145.953C283.609 145.953 291.105 153.447 291.105 162.659C291.105 169.197 287.257 175.169 281.301 177.875C279.128 178.863 276.805 179.364 274.395 179.364ZM274.395 146.835C265.668 146.835 258.568 153.934 258.568 162.659C258.568 168.852 262.213 174.51 267.854 177.073C269.912 178.008 272.112 178.483 274.395 178.483C276.678 178.483 278.879 178.008 280.936 177.073C286.577 174.51 290.223 168.852 290.223 162.659C290.223 153.934 283.122 146.835 274.395 146.835Z" fill="url(#paint49_linear)"/>
<path d="M329.692 185.772H315.327V187.541H329.692V185.772Z" fill="#D6D6D6"/>
<path d="M333.178 182.62H311.842V184.39H333.178V182.62Z" fill="#D6D6D6"/>
<path d="M322.542 162.041C324.591 162.041 326.251 160.38 326.251 158.332C326.251 156.284 324.591 154.624 322.542 154.624C320.494 154.624 318.833 156.284 318.833 158.332C318.833 160.38 320.494 162.041 322.542 162.041Z" fill="url(#paint50_linear)"/>
<path d="M329.233 170.422V177.474C327.185 178.406 324.907 178.923 322.51 178.923C320.113 178.923 317.835 178.405 315.787 177.474V170.422C315.787 166.71 318.796 163.7 322.51 163.7C326.224 163.7 329.233 166.71 329.233 170.422Z" fill="url(#paint51_linear)"/>
<path d="M322.51 179.364C320.101 179.364 317.777 178.863 315.604 177.875C309.649 175.169 305.801 169.197 305.801 162.659C305.801 153.447 313.297 145.953 322.51 145.953C331.724 145.953 339.22 153.447 339.22 162.659C339.22 169.197 335.372 175.169 329.416 177.875C327.243 178.863 324.92 179.364 322.51 179.364ZM322.51 146.835C313.783 146.835 306.683 153.934 306.683 162.659C306.683 168.852 310.328 174.51 315.969 177.073C318.027 178.008 320.227 178.483 322.51 178.483C324.793 178.483 326.994 178.008 329.051 177.073C334.692 174.51 338.337 168.852 338.337 162.659C338.337 153.934 331.237 146.835 322.51 146.835Z" fill="url(#paint52_linear)"/>
<path d="M178.824 193.266H177.503V198.822H178.824V193.266Z" fill="#C5CCD1"/>
<path d="M180.942 196.705V195.384H175.385V196.705H180.942Z" fill="#C5CCD1"/>
<path d="M226.972 193.266H225.651V198.822H226.972V193.266Z" fill="#C5CCD1"/>
<path d="M229.091 196.705V195.384H223.533V196.705H229.091Z" fill="#C5CCD1"/>
<path d="M275.121 193.266H273.799V198.822H275.121V193.266Z" fill="#C5CCD1"/>
<path d="M277.238 196.705V195.384H271.681V196.705H277.238Z" fill="#C5CCD1"/>
<path d="M323.268 193.266H321.947V198.822H323.268V193.266Z" fill="#C5CCD1"/>
<path d="M325.387 196.705V195.384H319.829V196.705H325.387Z" fill="#C5CCD1"/>
<path d="M288.352 168.842C288.352 168.842 286.25 169.642 284.633 169.8C283.016 169.958 280.673 171.648 280.075 172.382C279.477 173.116 274.587 178.368 274.501 179.038C274.415 179.708 275.751 179.485 276.2 178.954C276.649 178.423 280.916 174.195 280.916 174.195C280.916 174.195 276.129 179.523 276.16 180.148C276.19 180.773 276.911 181.307 277.794 180.754C277.794 180.754 278.5 182.2 279.745 180.948L282.237 178.46C282.237 178.46 281.183 179.977 282.566 179.541C283.302 179.31 285.769 176.172 286.459 175.707C287.149 175.243 289.79 171.224 289.79 171.224L288.352 168.842Z" fill="#EEA886"/>
<path d="M305.367 272.07C305.367 272.07 303.546 275.711 302.443 276.428C301.339 277.145 295.159 283.158 293.89 283.71C292.621 284.262 288.538 285.034 288.593 286.965C288.648 288.896 299.132 288.289 301.173 287.572C303.215 286.855 306.636 282.22 308.016 282.276C309.395 282.331 308.899 287.958 308.899 287.958H310.388C310.388 287.958 312.265 282 312.209 279.903C312.154 277.807 310.995 272.07 310.995 272.07H305.367Z" fill="#162D40"/>
<path d="M330.923 269.809C330.923 269.809 330.122 273.413 328.806 274.672C327.489 275.931 322.553 281.252 321.301 281.824C320.05 282.396 317.646 282.797 316.902 283.712C316.158 284.627 316.601 287.317 321.301 287.031C326.001 286.745 327.532 286.787 328.648 285.843C329.764 284.899 333.37 281.638 334.443 281.552V286.745H335.731C335.731 286.745 338.006 279.922 337.19 277.046C336.374 274.171 336.417 270.266 336.417 270.266L330.923 269.809Z" fill="#162D40"/>
<path d="M329.057 115.419C329.057 115.419 331.2 120.937 329.533 125.201C329.533 125.201 337.391 124.704 337.689 123.811C337.986 122.918 337.373 114.651 338.453 112.208C339.534 109.765 329.057 115.419 329.057 115.419Z" fill="#EEA886"/>
<path d="M343.287 189.408C343.287 189.408 342.831 190.613 342.9 191.501C342.955 192.204 342.564 193.356 342.415 193.978C342.267 194.6 341.916 197.346 342.002 198.022C342.037 198.298 342.932 199.897 342.942 200.467C342.951 201.037 342.829 202.198 343.327 202.166C343.826 202.134 344.223 201.118 344.223 201.118C344.223 201.118 344.264 201.636 344.708 201.742C345.573 201.947 345.939 201.523 345.939 201.523C345.939 201.523 346.33 202.019 346.713 202.014C347.557 202.004 347.9 201.584 347.9 201.584C347.9 201.584 348.313 201.82 348.876 201.687C349.595 201.518 349.789 200.816 349.789 200.816C349.789 200.816 350.735 200.808 350.926 200.315C351.116 199.823 350.991 199.369 351.034 198.951C351.076 198.533 350.384 194.99 348.76 192.682C347.136 190.374 347.952 187.474 347.952 187.474L343.287 189.408Z" fill="#EEA886"/>
<path d="M340.819 208.781L339.845 202.065C339.688 200.983 340.441 199.975 341.522 199.818L352.176 198.274C353.258 198.117 354.266 198.869 354.423 199.951L355.398 206.668C355.555 207.749 354.802 208.757 353.72 208.914L343.066 210.459C341.984 210.615 340.976 209.863 340.819 208.781ZM341.713 201.135C341.357 201.186 341.11 201.518 341.161 201.874L342.136 208.59C342.187 208.946 342.519 209.194 342.875 209.142L353.529 207.597C353.884 207.546 354.132 207.214 354.081 206.859L353.106 200.142C353.055 199.786 352.723 199.539 352.367 199.59L341.713 201.135Z" fill="#0E1E2B"/>
<path d="M332.712 237.739L372.041 232.037L367.887 203.405L328.559 209.108L332.712 237.739Z" fill="url(#paint53_linear)"/>
<path d="M344.038 200.812C344.038 200.812 343.41 197.635 344.117 196.777C344.824 195.919 345.115 197.052 345.115 197.052C345.115 197.052 344.808 195.937 345.682 195.589C346.557 195.241 346.826 196.586 346.826 196.586C346.826 196.586 346.823 195.676 347.8 195.652C348.776 195.629 348.743 196.799 348.743 196.799C348.743 196.799 349.458 195.504 350.224 196.434C351.519 198.004 351.008 200.323 351.008 200.323C351.008 200.323 350.798 200.953 349.858 200.911C349.858 200.911 349.454 202.288 347.955 201.689C347.955 201.689 346.657 202.774 345.943 201.641C345.943 201.641 344.441 202.676 344.038 200.812Z" fill="#DB9C7C"/>
<path d="M328.297 123.335C328.297 123.335 323.654 124.942 321.555 125.388C319.457 125.835 315.066 127.858 315.424 135.477C315.781 143.095 317.091 149.701 317.567 152.975C318.043 156.248 317.745 164.581 316.972 168.628C316.972 168.628 328.104 171.366 341.201 168.628C341.201 168.628 338.879 161.724 338.939 159.938C338.998 158.153 346.678 143.452 347.035 141.131C347.392 138.81 348.94 128.573 345.428 126.311C341.915 124.049 339.058 124.347 337.569 123.335C336.081 122.323 330.469 122.609 328.297 123.335Z" fill="#EB4747"/>
<path d="M322.335 125.201C322.335 125.201 317.21 125.061 313.578 133.096C309.947 141.131 309.054 145.833 308.22 146.964C307.387 148.095 304.47 152.499 301.612 154.642C298.755 156.784 286.857 168.854 286.857 168.854L290.123 173.033C290.123 173.033 307.268 160.891 309.054 158.808C310.84 156.725 321.685 140.953 322.335 138.572C322.984 136.191 327.996 127.663 322.335 125.201Z" fill="#EB4747"/>
<path d="M353.077 165.117C353.11 168.331 349.771 190.262 349.771 190.262L343.464 190.53C343.464 190.53 345.487 168.777 346.201 163.777C346.412 162.302 346.234 160.01 345.878 157.512V157.51C345.653 155.923 345.355 154.253 345.039 152.657C344.169 148.25 343.165 144.404 343.165 144.404C343.165 144.404 337.48 125.679 346.216 127.052C346.216 127.052 349.238 130.656 350.22 136.28C351.202 141.904 352.184 150.296 352.006 153.6C351.827 156.903 353.054 162.753 353.077 165.117Z" fill="#EB4747"/>
<path d="M316.972 168.628C316.972 168.628 314.947 173.413 314.769 174.621C314.59 175.83 308.245 191.623 307.804 196.244C307.357 200.916 306.018 213.385 305.541 215.171C305.065 216.956 306.613 224.932 306.851 226.717C307.089 228.503 306.971 257.667 304.827 272.07C304.827 272.07 309.828 274.212 313.638 272.07C313.638 272.07 319.948 249.572 319.591 236.598C319.234 223.622 317.588 218.147 319.601 212.909C321.615 207.672 333.402 191.959 334.593 190.292C335.783 188.626 343.242 179.417 336.179 169.439C329.116 159.463 316.972 168.628 316.972 168.628Z" fill="#1D3B54"/>
<path d="M341.348 211.242C340.721 215.41 341.38 220.884 342.689 236.122C344 251.358 340.397 269.808 340.397 269.808C335.873 271.356 330.664 269.808 330.664 269.808C330.784 268.737 330.664 232.669 330.664 229.455C330.664 226.241 329.741 222.593 329.503 218.904C329.341 216.39 328.171 211.755 326.855 207.023C326.46 205.606 326.053 204.181 325.656 202.801C325.656 202.799 325.656 202.799 325.656 202.799C325.433 202.025 325.215 201.265 325.003 200.529C323.149 194.101 320.656 169.281 320.656 169.281C320.656 169.281 334.474 158.153 341.201 168.629C347.929 179.103 344.475 186.722 344.238 188.03C344 189.341 341.974 207.077 341.348 211.242Z" fill="#1D3B54"/>
<path d="M315.892 149.14C315.892 149.14 316.823 167.884 312.358 178.686C312.358 178.686 327.092 183.597 346.112 178.686C346.112 178.686 342.036 165.25 342.362 163.197C342.687 161.143 349.806 137.457 347.616 131.884C345.427 126.311 318.088 131.557 315.892 149.14Z" fill="#EB4747"/>
<path d="M333.462 93.6953C330.145 93.3197 321.556 93.9928 322.211 106.908C322.865 119.824 327.568 119.05 332.271 117.681C336.975 116.312 342.57 106.313 342.57 103.635C342.57 100.956 342.928 94.7666 333.462 93.6953Z" fill="#EEA886"/>
<path d="M322.686 100.995C322.686 100.995 326.424 105.759 330.181 106.899C330.181 106.899 333.074 112.07 338.12 113.387C338.12 113.387 348.88 103.099 339.832 95.3615C330.783 87.6243 322.627 97.045 322.686 100.995Z" fill="#FCCCA2"/>
<path d="M329.473 105.123C329.599 104.417 331.166 102.98 332.373 104.587C333.581 106.194 331.378 109.944 330.545 109.944C329.711 109.944 328.997 107.801 329.473 105.123Z" fill="#EEA886"/>
<path d="M341.348 97.6889C341.617 97.2799 349.773 93.6058 351.47 101.284C353.167 108.961 344.901 117.889 343.453 121.728C342.005 125.567 343.453 134.673 343.453 134.673C343.453 134.673 339.134 129.99 337.629 125.201C335.977 119.942 335.422 106.682 341.348 97.6889Z" fill="#FCCCA2"/>
<path d="M335.618 188.857C335.511 189.095 328.626 204.373 326.854 207.023C326.46 205.605 326.052 204.18 325.656 202.8C325.656 202.798 325.656 202.798 325.656 202.798C325.656 202.798 335.388 189.193 335.618 188.857Z" fill="#162D40"/>
<path d="M347.317 141.912C347.317 141.912 347.101 151.631 345.878 157.51C345.653 155.923 345.355 154.254 345.039 152.657C345.089 152.438 347.08 143.431 347.317 141.912Z" fill="#AB3434"/>
<path d="M383.715 137.458H431.15C436.876 137.458 441.518 132.817 441.518 127.092V73.3688C441.518 67.6438 436.876 63.0024 431.15 63.0024H383.715C377.989 63.0024 373.347 67.6438 373.347 73.3688V127.092C373.347 132.817 377.989 137.458 383.715 137.458Z" fill="url(#paint54_linear)"/>
<path d="M415.845 72.2454H433.378V70.2468H415.845V72.2454Z" fill="white"/>
<path d="M420.505 76.6362H433.378V74.6378H420.505V76.6362Z" fill="white"/>
<path d="M401.728 81.0271H433.378V79.029H401.728V81.0271Z" fill="white"/>
<path d="M403.104 91.6572H381.388V93.6556H403.104V91.6572Z" fill="white"/>
<path d="M410.794 96.0483H381.388V98.047H410.794V96.0483Z" fill="white"/>
<path d="M420.59 100.439H381.388V102.438H420.59V100.439Z" fill="white"/>
<path d="M405.302 113.077H381.388V115.076H405.302V113.077Z" fill="white"/>
<path d="M414.475 117.468H381.388V119.467H414.475V117.468Z" fill="white"/>
<path d="M413.165 121.86H381.388V123.858H413.165V121.86Z" fill="white"/>
<path d="M110.332 112.869C110.332 112.869 111.295 130.356 108.086 132.917C106.602 134.102 103.105 134.475 99.3267 134.479C98.0819 134.481 96.8076 134.442 95.5635 134.38C95.5607 134.381 95.559 134.38 95.559 134.38C90.5933 134.131 86.1355 133.5 86.1355 133.5C86.1355 133.5 73.2609 134.153 73.8905 126.167C73.8905 126.167 75.3901 123.751 77.3126 123.199C79.0877 122.69 87.1967 124.09 88.6033 124.151C90.153 124.218 101.142 126.66 101.613 126.485C102.085 126.311 103.347 122.005 103.425 119.117C103.537 114.946 103.52 111.106 103.52 111.106L110.332 112.869Z" fill="#3C4169"/>
<path d="M42.1021 278.927C42.1021 278.927 41.021 281.533 40.1096 282.565C39.1984 283.598 35.7089 285.443 35.69 288.51C35.6693 291.836 41.5726 290.913 43.8811 290.791C46.1897 290.67 46.3643 288.893 47.3365 287.01C48.3082 285.127 49.288 285.446 49.4702 283.928C49.6526 282.409 48.7263 279.009 48.7263 279.009L42.1021 278.927Z" fill="#252840"/>
<path d="M88.3177 279.524C88.3177 279.524 91.5336 282.9 94.7981 283.607C98.0626 284.315 100.346 285.217 100.371 287.154C100.395 289.091 90.9758 290.368 87.2399 288.415C81.664 285.5 81.0973 286.379 80.4792 284.922C79.861 283.465 81.2218 279.569 81.1814 279.105C81.1319 278.533 88.3177 279.524 88.3177 279.524Z" fill="#252840"/>
<path d="M87.9344 182.036C87.9344 182.036 91.3121 206.566 92.6915 214.858C94.3045 224.553 94.8511 232.564 95.3009 237.583C95.8667 243.894 89.9477 277.849 90.3436 279.694C90.7396 281.54 79.686 278.927 79.686 278.927C79.686 278.927 83.1586 238.526 81.4736 231.804C79.9045 225.545 74.2435 198.033 72.812 199.742C71.3801 201.451 62.39 231.642 61.3296 236.578C60.2695 241.514 50.0448 280.162 50.0448 280.162C50.0448 280.162 42.4026 281.804 40.4585 280.256C40.4585 280.256 47.1274 244.751 47.803 235.496C48.0602 231.969 50.1507 193.447 56.1162 177.842C59.2696 169.595 87.9344 182.036 87.9344 182.036Z" fill="#292C47"/>
<path d="M0.0184592 109.55C0.316942 105.111 4.15767 101.756 8.59666 102.054L19.1503 102.763C23.5895 103.062 26.9463 106.901 26.6479 111.339C26.3494 115.778 22.5089 119.134 18.0694 118.835L7.51576 118.126C3.07677 117.828 -0.280024 113.988 0.0184592 109.55Z" fill="#C4B4AF"/>
<path d="M142.508 127.77L143.667 110.547L14.3959 101.855L13.2373 119.078L142.508 127.77Z" fill="#EB4747"/>
<path d="M14.3838 101.873L13.9976 107.614L143.269 116.306L143.655 110.565L14.3838 101.873Z" fill="#6880EB"/>
<path d="M142.893 122.027L143.279 116.285L14.008 107.593L13.6218 113.334L142.893 122.027Z" fill="#4A64E0"/>
<path d="M142.509 127.772L142.896 122.031L13.6245 113.338L13.2383 119.079L142.509 127.772Z" fill="#4860CF"/>
<path d="M142.505 127.777L143.663 110.554L162.377 118.694L167.19 120.786L162.14 122.217L142.505 127.777Z" fill="#EDDAD3"/>
<path d="M143.278 116.296C141.74 116.193 140.581 114.823 140.687 113.238C140.794 111.653 142.126 110.451 143.664 110.554L143.278 116.296Z" fill="#DECCC6"/>
<path d="M142.891 122.037C141.354 121.933 140.195 120.564 140.301 118.979C140.408 117.393 141.74 116.192 143.278 116.295L142.891 122.037Z" fill="#E3D1CA"/>
<path d="M142.505 127.778C140.968 127.675 139.808 126.306 139.915 124.72C140.022 123.135 141.354 121.933 142.891 122.037L142.505 127.778Z" fill="#EDDAD3"/>
<path d="M9.93312 101.569L9.54688 107.311L17.4906 107.845L17.8768 102.103L9.93312 101.569Z" fill="#B39696"/>
<path d="M17.1187 113.575L17.5049 107.833L9.56142 107.299L9.17524 113.041L17.1187 113.575Z" fill="#DBB8B8"/>
<path d="M16.7329 119.316L17.1191 113.574L9.17568 113.04L8.78946 118.781L16.7329 119.316Z" fill="#F2CBCB"/>
<path d="M143.278 116.295L167.191 120.787L143.664 110.554L143.278 116.295Z" fill="#DECCC6"/>
<path d="M142.892 122.037L167.191 120.787L143.278 116.295L142.892 122.037Z" fill="#E3D1CA"/>
<path d="M142.891 122.037L167.19 120.787L142.505 127.778L142.891 122.037Z" fill="#EDDAD3"/>
<path d="M162.141 122.217L162.378 118.694L167.191 120.787L162.141 122.217Z" fill="#323438"/>
<path d="M104.837 107.116C104.837 107.116 104.167 110.09 104.811 110.915C105.455 111.74 105.757 110.681 105.757 110.681C105.757 110.681 105.441 111.723 106.254 112.072C107.068 112.422 107.355 111.163 107.355 111.163C107.355 111.163 107.33 112.019 108.249 112.066C109.167 112.113 109.165 111.011 109.165 111.011C109.165 111.011 109.805 112.247 110.55 111.391C111.807 109.946 111.307 107.756 111.307 107.756C111.307 107.756 111.136 107.24 110.25 107.256C110.25 107.256 109.917 105.96 108.492 106.486C108.492 106.486 107.346 105.446 106.645 106.494C106.645 106.494 105.36 105.457 104.837 107.116Z" fill="#EFAA88"/>
<path d="M43.504 181.63C43.504 181.63 47.6973 182.904 49.4529 182.581C51.2114 182.259 50.3214 160.716 50.3907 156.233C50.4441 152.598 52.4343 142.998 52.4343 142.998C52.4343 142.998 52.4343 143.003 52.4369 143.014C52.4395 143.017 52.4395 143.022 52.4395 143.025C52.4395 143.03 52.4423 143.036 52.4423 143.041C52.6396 143.76 55.3249 153.722 55.4181 158.508C55.5166 163.475 54.7705 182.477 54.7705 182.477L62.1725 183.197L83.4456 183.719L87.8831 183.195C87.8831 183.195 87.3529 175.07 87.1558 171.21C87.0335 168.757 86.5567 164.365 86.679 160.087C86.679 160.087 86.6017 155.578 87.0495 153.636C87.0973 145.065 87.6168 136.576 87.6168 136.576C87.9045 132.69 88.1044 129.057 88.2188 125.667C87.2812 125.171 86.154 124.591 85.251 124.162C82.4592 122.833 78.5696 121.042 76.073 119.897C74.6105 119.226 73.1799 118.736 73.1799 118.736C73.1799 118.736 63.2028 117.78 62.3928 117.831C62.1371 117.847 60.8904 118.281 59.2545 118.904C55.7165 120.246 48.8962 122.979 47.8094 123.76C46.2163 124.9 42.8487 151.993 42.697 153.89C42.4225 157.307 43.504 181.63 43.504 181.63Z" fill="#FFAD55"/>
<path d="M87.2429 179.801C87.2429 179.801 72.6417 181.044 59.854 179.801V183.996C59.854 183.996 79.0585 186.768 87.8833 183.196L87.2429 179.801Z" fill="#1D2033"/>
<path d="M74.79 119.346C74.79 119.346 77.1647 124.924 78.9472 137.393C79.6317 142.182 80.9008 150.243 81.8226 158.471V158.474C82.5499 164.959 84.2096 171.616 84.737 176.58C85.2831 181.724 86.9297 196.876 86.9297 196.876L90.9232 194.359C91.4933 193.832 92.2926 193.148 92.0609 192.407C90.9634 188.862 88.861 177.143 87.6196 166.928C87.6196 166.92 87.617 166.915 87.617 166.907C87.5582 166.414 87.4998 165.926 87.4436 165.442C87.441 165.418 87.4384 165.391 87.4358 165.365C87.2011 163.322 87.0068 161.364 86.8681 159.571C86.7619 158.197 86.8577 156.854 87.0468 155.541C87.6033 146.373 87.8796 136.706 87.8796 136.706C88.1726 132.748 88.8991 127.628 89.0108 124.182C87.6202 123.995 86.5899 123.809 85.4725 123.474C85.4729 123.474 77.6015 120.532 74.79 119.346Z" fill="#3C4169"/>
<path d="M69.6794 93.0118C69.6794 93.0118 77.0874 94.2614 75.8313 105.857C74.5749 117.452 68.0357 116.43 67.5978 116.413C67.1601 116.397 61.0205 116.553 60.6963 102.375C60.6966 102.375 60.6021 91.8931 69.6794 93.0118Z" fill="#EEA987"/>
<path d="M72.9258 113.052C72.9258 113.052 72.9247 117.829 73.1208 118.863C73.3319 119.975 67.1723 123.188 63.1958 119.444C63.1958 119.444 63.9998 114.228 63.75 112.386C63.5006 110.544 72.9258 113.052 72.9258 113.052Z" fill="#EEA987"/>
<path d="M75.8598 103.156C75.8598 103.156 76.682 102.297 76.9703 103.179C77.2589 104.061 75.9288 107.788 75.7574 108.146C75.7574 108.146 75.6052 108.486 75.4122 108.296C75.2192 108.106 75.8598 103.156 75.8598 103.156Z" fill="#EEA987"/>
<path d="M60.782 102.267C60.782 102.267 59.9957 101.375 59.6713 102.244C59.3467 103.113 60.5313 107.016 60.6792 107.257C60.6792 107.257 60.9342 107.658 61.1348 107.476C61.3356 107.295 60.782 102.267 60.782 102.267Z" fill="#EEA987"/>
<path d="M76.456 101.594C76.2003 103.181 75.9593 104.359 75.9593 104.359L74.8814 105.768C74.8814 105.768 74.945 102.655 74.7805 102.166C74.7178 101.981 74.6445 101.653 74.5689 101.297C74.4453 100.711 74.3186 100.049 74.2317 99.828C74.0927 99.4755 67.8821 97.6621 62.3505 100.208C62.3505 100.208 62.3976 100.687 62.3942 101.222C62.3922 101.843 62.3239 102.539 62.0389 102.644C61.5085 102.837 61.73 106.286 61.73 106.286L60.8678 105.291C60.8678 105.291 60.6184 103.49 60.3731 101.419C60.3731 101.419 60.3718 101.414 60.3705 101.404C60.3152 100.921 60.2586 100.425 60.2045 99.9317C60.0807 97.8486 60.2869 94.0667 62.9998 91.8447C64.8303 91.0614 67.7533 90.3954 72.6256 91.8868C72.6256 91.8868 73.743 91.9614 74.0562 92.2628C77.0903 95.6011 76.456 101.594 76.456 101.594Z" fill="#D88A51"/>
<path d="M64.2588 114.863C64.2588 114.863 65.4413 116.505 68.1886 116.443C70.9355 116.381 72.1281 114.949 72.1281 114.949C72.1281 114.949 70.8276 117.669 68.1754 117.64C65.5232 117.611 64.2588 114.863 64.2588 114.863Z" fill="#C78D71"/>
<path d="M73.408 122.488L70.644 124.532C70.644 124.532 72.9543 119.61 73.0023 117.639L73.408 122.488Z" fill="#A09EA6"/>
<path d="M73.002 117.639L74.8934 119.387L76.871 125.285L73.4076 122.488L73.002 117.639Z" fill="#EAE6F2"/>
<path d="M72.6578 119.398C72.6578 119.398 71.8938 122.081 70.6439 124.532C70.6439 124.532 67.7431 121.991 66.8301 121.086C65.9172 120.18 72.6578 119.398 72.6578 119.398Z" fill="#EEA987"/>
<path d="M67.6088 121.692L70.6436 124.532C70.6436 124.532 67.0557 124.294 66.3853 123.696L67.6088 121.692Z" fill="#A09EA6"/>
<path d="M63.5823 116.459C63.5823 116.459 66.0099 120.405 67.6084 121.692L64.9152 126.162L60.5977 118.32L63.5823 116.459Z" fill="#EAE6F2"/>
<path d="M50.6954 156.437C50.3859 160.598 52.1464 183.616 50.39 183.94C48.6335 184.262 42.178 182.844 42.178 182.844C42.178 182.844 41.3685 158.021 41.6279 155.419C41.8166 153.524 44.8328 125.116 46.4248 123.975C47.3445 123.315 54.1594 120.9 57.5035 119.582C58.1147 119.34 60.0504 118.528 60.5979 118.32C61.3075 119.109 67.4866 133.606 68.074 144.914C68.253 148.356 67.4464 155.623 66.8326 161.561C66.1779 167.895 65.4525 172.839 64.9211 178.136C63.8739 188.572 63.1414 196.876 63.1414 196.876L52.7524 192.253C51.0715 191.411 48.7433 187.961 49.3755 186.191C51.7772 179.466 54.8014 167.975 54.8048 162.074C54.8048 162.074 53.6461 147.623 52.7278 144.446C52.7278 144.446 51.089 151.148 50.6954 156.437Z" fill="#3C4169"/>
<path d="M42.1535 194.665C42.1535 194.665 41.8015 193.806 41.8308 193.356C41.8308 193.356 41.9469 192.541 41.9945 191.956C42.0087 191.77 42.0176 191.608 42.0118 191.503C41.9891 191.063 41.8079 190.105 42.0502 189.034C42.2916 187.964 43.5284 184.269 43.5284 184.269L46.8642 184.765L49.7632 184.372C49.7632 184.372 51.924 190.678 51.8142 191.701C51.8027 191.801 51.788 191.899 51.7668 191.991C51.5898 192.848 51.0977 193.412 50.9537 193.851C50.8995 194.012 50.2558 195.577 49.7728 195.727C49.1025 195.936 48.5529 195.809 48.1811 195.504C48.1811 195.504 46.8508 195.855 46.0081 195.471C46.0081 195.471 44.7913 195.834 43.8796 195.057C43.8796 195.057 42.6037 195.287 42.1535 194.665Z" fill="#EFAA88"/>
<path d="M50.9693 168.074L50.8629 186.368C50.8629 186.368 47.2113 186.205 42.1782 184.347L41.8291 158.55L50.9693 168.074Z" fill="#3C4169"/>
<path d="M76.8504 180.058H69.9683V185.174H76.8504V180.058Z" fill="#3A4066"/>
<defs>
<linearGradient id="paint0_linear" x1="59.6629" y1="-40.8925" x2="59.6629" y2="48.3325" gradientUnits="userSpaceOnUse">
<stop stop-color="#D5E4FF"/>
<stop offset="1" stop-color="#EDFFFE"/>
</linearGradient>
<linearGradient id="paint1_linear" x1="65.4729" y1="-40.8929" x2="65.4729" y2="48.3323" gradientUnits="userSpaceOnUse">
<stop stop-color="#D5E4FF"/>
<stop offset="1" stop-color="#EDFFFE"/>
</linearGradient>
<linearGradient id="paint2_linear" x1="45.7791" y1="321.108" x2="45.7791" y2="26.7214" gradientUnits="userSpaceOnUse">
<stop stop-color="#78C5F1"/>
<stop offset="1" stop-color="#EDFFFE"/>
</linearGradient>
<linearGradient id="paint3_linear" x1="161.707" y1="218.434" x2="161.707" y2="-9.9935" gradientUnits="userSpaceOnUse">
<stop stop-color="#78C5F1"/>
<stop offset="1" stop-color="#EDFFFE"/>
</linearGradient>
<linearGradient id="paint4_linear" x1="277.636" y1="218.434" x2="277.636" y2="-9.9935" gradientUnits="userSpaceOnUse">
<stop stop-color="#78C5F1"/>
<stop offset="1" stop-color="#EDFFFE"/>
</linearGradient>
<linearGradient id="paint5_linear" x1="393.563" y1="218.434" x2="393.563" y2="-9.9935" gradientUnits="userSpaceOnUse">
<stop stop-color="#78C5F1"/>
<stop offset="1" stop-color="#EDFFFE"/>
</linearGradient>
<linearGradient id="paint6_linear" x1="176.757" y1="-40.8925" x2="176.757" y2="48.3325" gradientUnits="userSpaceOnUse">
<stop stop-color="#D5E4FF"/>
<stop offset="1" stop-color="#EDFFFE"/>
</linearGradient>
<linearGradient id="paint7_linear" x1="170.88" y1="-40.8929" x2="170.88" y2="48.3323" gradientUnits="userSpaceOnUse">
<stop stop-color="#D5E4FF"/>
<stop offset="1" stop-color="#EDFFFE"/>
</linearGradient>
<linearGradient id="paint8_linear" x1="288.551" y1="-40.8925" x2="288.551" y2="48.3325" gradientUnits="userSpaceOnUse">
<stop stop-color="#D5E4FF"/>
<stop offset="1" stop-color="#EDFFFE"/>
</linearGradient>
<linearGradient id="paint9_linear" x1="290.223" y1="-40.8929" x2="290.223" y2="48.3323" gradientUnits="userSpaceOnUse">
<stop stop-color="#D5E4FF"/>
<stop offset="1" stop-color="#EDFFFE"/>
</linearGradient>
<linearGradient id="paint10_linear" x1="409.091" y1="-40.8925" x2="409.091" y2="48.3325" gradientUnits="userSpaceOnUse">
<stop stop-color="#D5E4FF"/>
<stop offset="1" stop-color="#EDFFFE"/>
</linearGradient>
<linearGradient id="paint11_linear" x1="406.151" y1="-40.8929" x2="406.151" y2="48.3323" gradientUnits="userSpaceOnUse">
<stop stop-color="#D5E4FF"/>
<stop offset="1" stop-color="#EDFFFE"/>
</linearGradient>
<linearGradient id="paint12_linear" x1="45.7794" y1="241.102" x2="64.2235" y2="241.102" gradientUnits="userSpaceOnUse">
<stop stop-color="#D5E4FF"/>
<stop offset="1" stop-color="#EDFFFE"/>
</linearGradient>
<linearGradient id="paint13_linear" x1="161.707" y1="239.215" x2="180.152" y2="239.215" gradientUnits="userSpaceOnUse">
<stop stop-color="#D5E4FF"/>
<stop offset="1" stop-color="#EDFFFE"/>
</linearGradient>
<linearGradient id="paint14_linear" x1="278.451" y1="239.215" x2="296.895" y2="239.215" gradientUnits="userSpaceOnUse">
<stop stop-color="#D5E4FF"/>
<stop offset="1" stop-color="#EDFFFE"/>
</linearGradient>
<linearGradient id="paint15_linear" x1="394.379" y1="239.215" x2="412.823" y2="239.215" gradientUnits="userSpaceOnUse">
<stop stop-color="#D5E4FF"/>
<stop offset="1" stop-color="#EDFFFE"/>
</linearGradient>
<linearGradient id="paint16_linear" x1="441.139" y1="125.124" x2="45.4577" y2="125.124" gradientUnits="userSpaceOnUse">
<stop stop-color="#D5E4FF"/>
<stop offset="1" stop-color="#EDFFFE"/>
</linearGradient>
<linearGradient id="paint17_linear" x1="580.099" y1="132.239" x2="-123.103" y2="139.128" gradientUnits="userSpaceOnUse">
<stop stop-color="#D5E4FF"/>
<stop offset="1" stop-color="#EDFFFE"/>
</linearGradient>
<linearGradient id="paint18_linear" x1="92.8554" y1="137.09" x2="149.407" y2="137.09" gradientUnits="userSpaceOnUse">
<stop stop-color="#40D5E6"/>
<stop offset="1" stop-color="#5577FF"/>
</linearGradient>
<linearGradient id="paint19_linear" x1="92.3518" y1="138.074" x2="154.733" y2="138.074" gradientUnits="userSpaceOnUse">
<stop stop-color="#40D5E6"/>
<stop offset="1" stop-color="#5577FF"/>
</linearGradient>
<linearGradient id="paint20_linear" x1="106.911" y1="128.485" x2="111.248" y2="128.485" gradientUnits="userSpaceOnUse">
<stop stop-color="#40D5E6"/>
<stop offset="1" stop-color="#5577FF"/>
</linearGradient>
<linearGradient id="paint21_linear" x1="108.565" y1="136.108" x2="116.065" y2="136.108" gradientUnits="userSpaceOnUse">
<stop stop-color="#40D5E6"/>
<stop offset="1" stop-color="#5577FF"/>
</linearGradient>
<linearGradient id="paint22_linear" x1="122.374" y1="130.811" x2="123.586" y2="130.811" gradientUnits="userSpaceOnUse">
<stop stop-color="#40D5E6"/>
<stop offset="1" stop-color="#5577FF"/>
</linearGradient>
<linearGradient id="paint23_linear" x1="90.5923" y1="100.027" x2="147.647" y2="100.027" gradientUnits="userSpaceOnUse">
<stop stop-color="#40D5E6"/>
<stop offset="1" stop-color="#5577FF"/>
</linearGradient>
<linearGradient id="paint24_linear" x1="90.4492" y1="99.5068" x2="161.703" y2="99.5068" gradientUnits="userSpaceOnUse">
<stop stop-color="#40D5E6"/>
<stop offset="1" stop-color="#5577FF"/>
</linearGradient>
<linearGradient id="paint25_linear" x1="105.842" y1="105.617" x2="120.715" y2="105.617" gradientUnits="userSpaceOnUse">
<stop stop-color="#40D5E6"/>
<stop offset="1" stop-color="#5577FF"/>
</linearGradient>
<linearGradient id="paint26_linear" x1="115.784" y1="87.5409" x2="116.177" y2="87.5409" gradientUnits="userSpaceOnUse">
<stop stop-color="#40D5E6"/>
<stop offset="1" stop-color="#5577FF"/>
</linearGradient>
<linearGradient id="paint27_linear" x1="94.42" y1="84.6376" x2="106.471" y2="84.6376" gradientUnits="userSpaceOnUse">
<stop stop-color="#40D5E6"/>
<stop offset="1" stop-color="#5577FF"/>
</linearGradient>
<linearGradient id="paint28_linear" x1="376.813" y1="205.738" x2="420.165" y2="205.738" gradientUnits="userSpaceOnUse">
<stop stop-color="#40D5E6"/>
<stop offset="1" stop-color="#5577FF"/>
</linearGradient>
<linearGradient id="paint29_linear" x1="408.614" y1="229.924" x2="447.818" y2="229.924" gradientUnits="userSpaceOnUse">
<stop stop-color="#40D5E6"/>
<stop offset="1" stop-color="#5577FF"/>
</linearGradient>
<linearGradient id="paint30_linear" x1="411.966" y1="235.623" x2="441.39" y2="235.623" gradientUnits="userSpaceOnUse">
<stop stop-color="#40D5E6"/>
<stop offset="1" stop-color="#5577FF"/>
</linearGradient>
<linearGradient id="paint31_linear" x1="406.883" y1="173.596" x2="458.474" y2="199.043" gradientUnits="userSpaceOnUse">
<stop stop-color="#03C4D7"/>
<stop offset="1" stop-color="#8AE4B6"/>
</linearGradient>
<linearGradient id="paint32_linear" x1="393.476" y1="261.092" x2="425.098" y2="261.092" gradientUnits="userSpaceOnUse">
<stop stop-color="#FF9340"/>
<stop offset="1" stop-color="#FFCE45"/>
</linearGradient>
<linearGradient id="paint33_linear" x1="393.476" y1="261.092" x2="425.098" y2="261.092" gradientUnits="userSpaceOnUse">
<stop stop-color="#C97332"/>
<stop offset="1" stop-color="#FFCE45"/>
</linearGradient>
<linearGradient id="paint34_linear" x1="137.599" y1="57.4588" x2="357.179" y2="57.4588" gradientUnits="userSpaceOnUse">
<stop stop-color="#FF9F55"/>
<stop offset="1" stop-color="#FFD255"/>
</linearGradient>
<linearGradient id="paint35_linear" x1="248.734" y1="56.9942" x2="248.717" y2="56.6206" gradientUnits="userSpaceOnUse">
<stop stop-color="#FF9340"/>
<stop offset="1" stop-color="#FFCE45"/>
</linearGradient>
<linearGradient id="paint36_linear" x1="263.032" y1="61.7268" x2="263.021" y2="61.477" gradientUnits="userSpaceOnUse">
<stop stop-color="#FF9340"/>
<stop offset="1" stop-color="#FFCE45"/>
</linearGradient>
<linearGradient id="paint37_linear" x1="238.231" y1="51.1924" x2="238.226" y2="51.1011" gradientUnits="userSpaceOnUse">
<stop stop-color="#FF9340"/>
<stop offset="1" stop-color="#FFCE45"/>
</linearGradient>
<linearGradient id="paint38_linear" x1="210.264" y1="84.0999" x2="210.264" y2="99.014" gradientUnits="userSpaceOnUse">
<stop stop-color="#03C4D7"/>
<stop offset="1" stop-color="#8AE4B6"/>
</linearGradient>
<linearGradient id="paint39_linear" x1="210.264" y1="116.603" x2="210.264" y2="131.518" gradientUnits="userSpaceOnUse">
<stop stop-color="#03C4D7"/>
<stop offset="1" stop-color="#8AE4B6"/>
</linearGradient>
<linearGradient id="paint40_linear" x1="160.727" y1="85.7855" x2="197.798" y2="127.569" gradientUnits="userSpaceOnUse">
<stop stop-color="#03C4D7"/>
<stop offset="1" stop-color="#8AE4B6"/>
</linearGradient>
<linearGradient id="paint41_linear" x1="175.687" y1="155.186" x2="180.842" y2="161.894" gradientUnits="userSpaceOnUse">
<stop stop-color="#03C4D7"/>
<stop offset="1" stop-color="#8AE4B6"/>
</linearGradient>
<linearGradient id="paint42_linear" x1="173.616" y1="164.853" x2="184.46" y2="177.317" gradientUnits="userSpaceOnUse">
<stop stop-color="#03C4D7"/>
<stop offset="1" stop-color="#8AE4B6"/>
</linearGradient>
<linearGradient id="paint43_linear" x1="178.164" y1="151.136" x2="178.164" y2="185.896" gradientUnits="userSpaceOnUse">
<stop stop-color="#D3DAE0"/>
<stop offset="1" stop-color="white"/>
</linearGradient>
<linearGradient id="paint44_linear" x1="223.803" y1="155.186" x2="228.957" y2="161.894" gradientUnits="userSpaceOnUse">
<stop stop-color="#03C4D7"/>
<stop offset="1" stop-color="#8AE4B6"/>
</linearGradient>
<linearGradient id="paint45_linear" x1="221.732" y1="164.853" x2="232.576" y2="177.317" gradientUnits="userSpaceOnUse">
<stop stop-color="#03C4D7"/>
<stop offset="1" stop-color="#8AE4B6"/>
</linearGradient>
<linearGradient id="paint46_linear" x1="226.279" y1="151.136" x2="226.279" y2="185.896" gradientUnits="userSpaceOnUse">
<stop stop-color="#D3DAE0"/>
<stop offset="1" stop-color="white"/>
</linearGradient>
<linearGradient id="paint47_linear" x1="271.918" y1="155.186" x2="277.073" y2="161.894" gradientUnits="userSpaceOnUse">
<stop stop-color="#03C4D7"/>
<stop offset="1" stop-color="#8AE4B6"/>
</linearGradient>
<linearGradient id="paint48_linear" x1="269.848" y1="164.853" x2="280.691" y2="177.317" gradientUnits="userSpaceOnUse">
<stop stop-color="#03C4D7"/>
<stop offset="1" stop-color="#8AE4B6"/>
</linearGradient>
<linearGradient id="paint49_linear" x1="274.395" y1="151.136" x2="274.395" y2="185.896" gradientUnits="userSpaceOnUse">
<stop stop-color="#D3DAE0"/>
<stop offset="1" stop-color="white"/>
</linearGradient>
<linearGradient id="paint50_linear" x1="322.542" y1="148.569" x2="322.542" y2="188.263" gradientUnits="userSpaceOnUse">
<stop stop-color="#40D5E6"/>
<stop offset="1" stop-color="#5577FF"/>
</linearGradient>
<linearGradient id="paint51_linear" x1="322.51" y1="148.57" x2="322.51" y2="188.263" gradientUnits="userSpaceOnUse">
<stop stop-color="#40D5E6"/>
<stop offset="1" stop-color="#5577FF"/>
</linearGradient>
<linearGradient id="paint52_linear" x1="322.51" y1="151.136" x2="322.51" y2="185.896" gradientUnits="userSpaceOnUse">
<stop stop-color="#D3DAE0"/>
<stop offset="1" stop-color="white"/>
</linearGradient>
<linearGradient id="paint53_linear" x1="350.3" y1="203.405" x2="350.3" y2="237.739" gradientUnits="userSpaceOnUse">
<stop stop-color="#03C4D7"/>
<stop offset="1" stop-color="#8AE4B6"/>
</linearGradient>
<linearGradient id="paint54_linear" x1="441.518" y1="100.23" x2="373.347" y2="100.23" gradientUnits="userSpaceOnUse">
<stop stop-color="#F9CB8E"/>
<stop offset="1" stop-color="#FFC7B8"/>
</linearGradient>
</defs>
</svg>
