<svg xmlns="http://www.w3.org/2000/svg" width="315" height="350" viewBox="0 0 315 350" fill="none">
<g opacity="0.18">
<path d="M301.76 311.097H160.144C152.831 311.097 146.903 305.159 146.903 297.834V108.793C146.903 101.467 152.831 95.5288 160.144 95.5288H301.76C309.072 95.5288 315 101.467 315 108.793V297.834C315 305.159 309.072 311.097 301.76 311.097Z" fill="#79E7FF"/>
</g>
<path d="M190.684 239.81H190.086V291.899H190.684V239.81Z" fill="#E0E0E0"/>
<path d="M217.419 239.81H216.822V291.9H217.419V239.81Z" fill="#E0E0E0"/>
<path d="M248.926 239.81H248.328V291.9H248.926V239.81Z" fill="#E0E0E0"/>
<path d="M283.443 239.81H282.846V291.9H283.443V239.81Z" fill="#E0E0E0"/>
<path d="M280.995 267.532C280.986 267.483 280.067 262.71 275.895 260.225C272.729 258.34 268.499 258.233 263.323 259.908C257.946 261.648 253.735 262.492 250.08 262.492C242.19 262.493 236.886 258.559 228.023 251.209C222.494 246.624 215.772 244.975 209.096 246.566C201.821 248.298 195.743 253.657 192.419 261.266L190.348 260.358C193.958 252.091 200.601 246.261 208.573 244.362C212.136 243.513 215.737 243.501 219.274 244.325C222.959 245.184 226.388 246.913 229.465 249.465C242.27 260.084 246.672 262.916 262.628 257.753C268.463 255.864 273.325 256.046 277.077 258.294C282.129 261.321 283.219 267 283.263 267.238L280.995 267.532Z" fill="url(#paint0_linear)"/>
<path d="M210.208 113.427H166.974V118.365H210.208V113.427Z" fill="#DED7D5"/>
<path d="M198.717 124.276H166.974V129.214H198.717V124.276Z" fill="#DED7D5"/>
<path d="M245.019 135.125H166.974V140.063H245.019V135.125Z" fill="#DED7D5"/>
<path d="M159.589 223.175L280.413 145.827L295.238 217.978L159.589 223.175ZM279.3 148.468L165.495 221.323L293.263 216.428L279.3 148.468Z" fill="url(#paint1_linear)"/>
<path d="M168.062 239.63C167.608 239.857 166.7 240.085 165.537 240.085C162.841 240.085 160.812 238.379 160.812 235.238C160.812 232.239 162.841 230.207 165.806 230.207C166.998 230.207 167.749 230.462 168.076 230.633L167.778 231.642C167.31 231.415 166.643 231.244 165.849 231.244C163.607 231.244 162.117 232.68 162.117 235.195C162.117 237.541 163.465 239.047 165.792 239.047C166.544 239.047 167.31 238.891 167.807 238.649L168.062 239.63Z" fill="#3D8ED1"/>
<path d="M277.712 138.322L276.719 141.336H275.441L278.691 131.756H280.18L283.443 141.336H282.124L281.102 138.322H277.712ZM280.847 137.356L279.91 134.599C279.698 133.973 279.556 133.404 279.414 132.85H279.386C279.244 133.419 279.088 134.001 278.903 134.584L277.967 137.356H280.847Z" fill="#3D8ED1"/>
<path d="M294.177 225.441C294.716 225.327 295.567 225.241 296.432 225.241C297.667 225.241 298.461 225.455 299.057 225.938C299.554 226.308 299.852 226.876 299.852 227.63C299.852 228.553 299.242 229.363 298.234 229.733V229.761C299.142 229.989 300.206 230.742 300.206 232.163C300.206 232.988 299.88 233.613 299.398 234.082C298.731 234.693 297.653 234.978 296.092 234.978C295.241 234.978 294.588 234.921 294.177 234.864V225.441ZM295.411 229.363H296.532C297.837 229.363 298.603 228.681 298.603 227.757C298.603 226.634 297.751 226.193 296.503 226.193C295.936 226.193 295.61 226.236 295.411 226.279V229.363ZM295.411 233.954C295.652 233.997 296.007 234.011 296.447 234.011C297.723 234.011 298.901 233.542 298.901 232.149C298.901 230.841 297.78 230.302 296.432 230.302H295.411V233.954H295.411Z" fill="#3D8ED1"/>
<path d="M152.462 134.141C150.046 127.373 143.59 123.216 136.785 123.421C135.137 123.471 133.47 123.776 131.833 124.362C126.876 126.138 123.322 130.094 121.862 134.766C120.85 138.004 120.843 141.587 122.072 145.029C122.194 145.371 122.327 145.708 122.469 146.037C123.116 147.527 123.964 148.876 124.971 150.061C129.194 155.034 136.201 157.136 142.702 154.808C151.094 151.801 155.464 142.548 152.462 134.141ZM141.342 150.998C136.468 152.744 131.214 151.168 128.048 147.44C127.294 146.551 126.657 145.54 126.173 144.422C126.066 144.175 125.967 143.923 125.875 143.666C124.954 141.086 124.959 138.4 125.718 135.973C126.812 132.469 129.477 129.503 133.193 128.172C134.42 127.733 135.67 127.504 136.906 127.467C142.007 127.312 146.848 130.429 148.66 135.503C150.91 141.806 147.634 148.743 141.342 150.998Z" fill="url(#paint2_linear)"/>
<path d="M125.718 135.972L121.862 134.766C123.322 130.093 126.876 126.138 131.833 124.362C133.47 123.776 135.137 123.471 136.785 123.421L136.905 127.466C135.67 127.504 134.42 127.733 133.193 128.172C129.477 129.503 126.812 132.468 125.718 135.972Z" fill="#FF4F58"/>
<path d="M126.173 144.422L122.469 146.037C122.327 145.708 122.194 145.371 122.072 145.029C120.843 141.587 120.85 138.004 121.862 134.766L125.718 135.972C124.959 138.4 124.954 141.086 125.875 143.666C125.966 143.923 126.066 144.175 126.173 144.422Z" fill="#FF6F59"/>
<path d="M124.971 150.061C123.964 148.876 123.116 147.527 122.47 146.037L126.173 144.422C126.657 145.54 127.294 146.551 128.048 147.439L124.971 150.061Z" fill="#FFAD5B"/>
<path d="M153.409 163.437H121.125V165.931H153.409V163.437Z" fill="#BDC1C9"/>
<path d="M145.284 168.738H121.125V171.232H145.284V168.738Z" fill="#BDC1C9"/>
<path d="M238.644 138.76C238.649 138.758 238.654 138.758 238.66 138.759C238.595 138.788 238.585 138.79 238.644 138.76Z" fill="#323657"/>
<g opacity="0.18">
<path d="M228.764 88.7851H128.783C125.218 88.7851 122.329 85.8904 122.329 82.3195V14.6245C122.329 11.0534 125.218 8.15869 128.783 8.15869H228.764C232.329 8.15869 235.219 11.0534 235.219 14.6245V82.3195C235.219 85.8904 232.329 88.7851 228.764 88.7851Z" fill="#79E7FF"/>
</g>
<path d="M223.028 55.2559H204.84C204.071 55.2559 203.448 54.6318 203.448 53.8616V51.0477C203.448 50.2776 204.071 49.6533 204.84 49.6533H223.028C223.797 49.6533 224.42 50.2776 224.42 51.0477V53.8616C224.42 54.6318 223.797 55.2559 223.028 55.2559Z" fill="white"/>
<path d="M223.028 46.2957H204.84C204.071 46.2957 203.448 45.6716 203.448 44.9015V42.0875C203.448 41.3174 204.071 40.6931 204.84 40.6931H223.028C223.797 40.6931 224.42 41.3172 224.42 42.0875V44.9015C224.42 45.6716 223.797 46.2957 223.028 46.2957Z" fill="white"/>
<path d="M223.028 37.3358H204.84C204.071 37.3358 203.448 36.7117 203.448 35.9416V33.1275C203.448 32.3573 204.071 31.733 204.84 31.733H223.028C223.797 31.733 224.42 32.3573 224.42 33.1275V35.9416C224.42 36.7115 223.797 37.3358 223.028 37.3358Z" fill="white"/>
<path d="M193.308 37.1567C188.643 24.0892 176.176 16.0632 163.037 16.4588C159.856 16.5547 156.636 17.144 153.475 18.2761C143.905 21.7054 137.042 29.3422 134.223 38.3642C132.269 44.6169 132.256 51.5351 134.629 58.18C134.864 58.8409 135.121 59.4912 135.396 60.1261C136.644 63.0043 138.281 65.6079 140.226 67.8963C148.38 77.4995 161.91 81.5577 174.462 77.0616C190.665 71.2554 199.103 53.3901 193.308 37.1567ZM171.835 69.7047C162.425 73.0768 152.281 70.0336 146.167 62.8346C144.71 61.1188 143.482 59.1666 142.547 57.0082C142.341 56.5316 142.148 56.0446 141.971 55.5487C140.192 50.5669 140.202 45.3802 141.667 40.6932C143.781 33.9279 148.925 28.202 156.101 25.6317C158.47 24.7829 160.884 24.3415 163.269 24.2687C173.119 23.9706 182.467 29.9888 185.965 39.7865C190.31 51.9576 183.984 65.3517 171.835 69.7047Z" fill="white"/>
<path d="M141.667 40.6935L134.223 38.3646C137.042 29.3424 143.905 21.7057 153.476 18.2764C156.636 17.1443 159.856 16.5548 163.037 16.4591L163.27 24.2691C160.885 24.342 158.47 24.7834 156.101 25.6322C148.926 28.2023 143.781 33.9282 141.667 40.6935Z" fill="url(#paint3_linear)"/>
<path d="M142.547 57.0084L135.396 60.1263C135.121 59.4914 134.864 58.8412 134.629 58.1803C132.256 51.5352 132.269 44.6172 134.222 38.3645L141.667 40.6935C140.202 45.3804 140.192 50.5672 141.971 55.549C142.148 56.0449 142.341 56.5319 142.547 57.0084Z" fill="url(#paint4_linear)"/>
<path d="M140.226 67.8966C138.281 65.6081 136.644 63.0045 135.396 60.1263L142.547 57.0084C143.481 59.1668 144.71 61.119 146.167 62.8349L140.226 67.8966Z" fill="url(#paint5_linear)"/>
<path d="M52.2759 104.021H45.9253V106.072H52.2759V104.021Z" fill="#B8B8B8"/>
<path d="M111.593 104.021H100.375V106.072H111.593V104.021Z" fill="#B8B8B8"/>
<path d="M81.497 104.021H70.2793V106.072H81.497V104.021Z" fill="#B8B8B8"/>
<path d="M139.108 104.021H132.812V106.072H139.108V104.021Z" fill="#B8B8B8"/>
<path opacity="0.18" d="M238.66 124.44H209.71V129.049H238.66V124.44Z" fill="url(#paint6_linear)"/>
<path opacity="0.18" d="M244.772 115.842H209.71V120.451H244.772V115.842Z" fill="url(#paint7_linear)"/>
<path opacity="0.18" d="M114.225 5.4805H133.775V1.93286H114.225V5.4805Z" fill="url(#paint8_linear)"/>
<path opacity="0.18" d="M114.225 0.944551H133.775V0.276978H114.225V0.944551Z" fill="url(#paint9_linear)"/>
<path d="M252.435 309.537L190.846 349.587H166.852L124.101 301.279C124.101 301.279 72.7482 280.503 62.0419 272.895C61.1713 272.276 60.5663 271.744 60.2823 271.317C56.5159 265.658 134.931 207.391 134.931 202.202C134.931 197.013 135.641 158.088 135.4 154.785C135.165 151.482 128.219 122.937 132.498 108.784C132.498 108.784 137.048 93.3706 146.625 95.888C146.625 95.888 147.829 95.9932 147.829 98.2073C147.829 98.3374 147.823 98.4673 147.817 98.6096C147.786 99.0858 147.712 99.6426 147.57 100.292C146.625 104.535 149.768 120.11 151.805 124.353C153.849 128.602 159.184 136.619 160.443 143.54C161.697 150.456 167.038 171.059 169.075 176.409C171.112 181.76 176.614 190.877 177.398 195.912C178.182 200.94 179.281 214.468 181.949 219.503C184.616 224.531 192.39 250.795 199.453 259.287C206.516 267.78 252.435 309.537 252.435 309.537Z" fill="url(#paint10_linear)"/>
<path d="M249.316 306.689L226.102 314.83C226.102 314.83 189.954 275.957 177.083 266.521C164.211 257.085 172.057 223.431 170.174 215.873C168.29 208.314 168.605 192.292 163.895 185.078C159.186 177.869 158.56 161.469 157.618 153.921C156.676 146.372 152.592 140.71 147.821 124.037C143.145 107.717 147.628 98.9699 147.817 98.6113C147.789 99.0831 147.713 99.6401 147.567 100.291C146.625 104.537 149.767 120.107 151.806 124.353C153.85 128.599 159.186 136.62 160.443 143.541C161.696 150.458 167.037 171.061 169.076 176.407C171.115 181.757 176.612 190.877 177.398 195.911C178.18 200.94 179.282 214.467 181.947 219.501C184.618 224.53 192.389 250.796 199.453 259.288C206.518 267.78 249.316 306.689 249.316 306.689Z" fill="url(#paint11_linear)"/>
<path d="M135.402 154.784C135.402 154.784 139.966 174.803 140.275 185.081C140.583 195.359 147.883 206.248 149.531 219.794C151.18 233.339 142.899 269.117 135.265 272.813C127.632 276.509 135.402 154.784 135.402 154.784Z" fill="url(#paint12_linear)"/>
<path d="M158.06 339.652L124.099 301.278C124.099 301.278 72.7456 280.5 62.0405 272.895H99.3738C99.3738 272.895 91.8384 276.508 101.493 282.406C111.148 288.303 145.999 294.437 148.119 300.57C150.238 306.704 130.273 296.01 158.06 339.652Z" fill="url(#paint13_linear)"/>
<path d="M135.402 154.784C135.402 154.784 142.231 180.969 139.719 189.776C137.208 198.583 135.402 211.793 135.402 211.793C135.402 211.793 135.539 165.714 135.402 154.784Z" fill="url(#paint14_linear)"/>
<path d="M135.402 82.2843V259.576C135.402 266.887 129.487 272.813 122.184 272.813H37.3316C33.4685 272.813 29.9936 271.156 27.578 268.509C25.4245 266.149 24.1133 263.022 24.1133 259.576V82.2843C24.1133 74.9687 30.034 69.0425 37.3316 69.0425H122.184C129.487 69.0425 135.402 74.9687 135.402 82.2843Z" fill="url(#paint15_linear)"/>
<path d="M87.4208 69.0425L27.578 268.509C25.4245 266.149 24.1133 263.022 24.1133 259.576V82.2843C24.1133 74.9687 30.034 69.0425 37.3316 69.0425H87.4208Z" fill="#D2DFE8"/>
<path d="M126.945 77.9238H32.585V240.269H126.945V77.9238Z" fill="#EFF4FF"/>
<path d="M79.7591 264.996C86.1886 264.996 91.4006 261.164 91.4006 256.437C91.4006 251.71 86.1886 247.878 79.7591 247.878C73.3297 247.878 68.1177 251.71 68.1177 256.437C68.1177 261.164 73.3297 264.996 79.7591 264.996Z" fill="url(#paint16_linear)"/>
<path d="M263.53 317.775L216.712 349.587H155.437L151.554 345.084L234.356 289.737L263.53 317.775Z" fill="url(#paint17_linear)"/>
<path d="M304.683 349.587H195.711L252.133 312.685C260.363 307.298 271.304 308.838 277.731 316.291L304.683 349.587Z" fill="url(#paint18_linear)"/>
<path d="M43.9861 272.813L105.12 69.0425H95.8692L34.7354 272.813H43.9861Z" fill="white"/>
<path d="M15.089 215.741C15.089 215.741 7.55434 222.302 7.6161 227.61C7.67675 232.844 7.82865 236.404 9.25657 239.113C10.3399 241.168 23.8251 258.866 26.8149 258.65C29.4062 258.462 34.7737 254.085 33.4978 248.06C32.222 242.034 27.0578 232.661 26.8149 231.931V213.124L15.089 215.741Z" fill="url(#paint19_linear)"/>
<path d="M24.3841 256.398C24.3841 256.398 27.7256 251.589 29.2444 250.372C30.7634 249.155 21.1641 233.513 16.668 237.652C12.1723 241.791 18.0047 250.92 24.3841 256.398Z" fill="url(#paint20_linear)"/>
<path d="M9.65523 175.903C9.65523 175.903 -0.0790808 184.38 0.00048512 191.237C0.0789382 198 0.275164 202.6 2.11983 206.099C3.51938 208.754 21.1153 232.52 24.8045 231.34C28.4936 230.161 35.0872 225.443 33.4388 217.658C31.7903 209.873 25.1185 197.764 24.8045 196.82V172.522L9.65523 175.903Z" fill="url(#paint21_linear)"/>
<path d="M21.6649 228.431C21.6649 228.431 25.9821 222.219 27.9445 220.646C29.9069 219.073 17.5049 198.865 11.6962 204.212C5.88788 209.559 13.4233 221.354 21.6649 228.431Z" fill="url(#paint22_linear)"/>
<path d="M9.65523 145.112C9.65523 145.112 -0.0790808 153.589 0.00048512 160.446C0.0789382 167.208 0.275164 171.808 2.11983 175.307C3.51938 177.963 21.1153 201.728 24.8045 200.549C28.4936 199.369 35.0872 194.651 33.4388 186.867C31.7903 179.082 25.1185 166.972 24.8045 166.029V141.731L9.65523 145.112Z" fill="url(#paint23_linear)"/>
<path d="M21.6649 197.64C21.6649 197.64 25.9821 191.427 27.9445 189.855C29.9069 188.282 17.5049 168.073 11.6962 173.421C5.88788 178.768 13.4233 190.563 21.6649 197.64Z" fill="url(#paint24_linear)"/>
<path d="M24.1137 112.086L24.8064 142.989C7.92714 151.953 1.88477 146.291 1.17813 144.876C0.471684 143.461 16.0136 120.107 18.3685 116.804C20.7232 113.501 24.1137 112.086 24.1137 112.086Z" fill="url(#paint25_linear)"/>
<path d="M1.15464 146.134C1.15464 146.134 8.55649 140.551 11.2252 139.529C13.8939 138.507 18.6664 126.627 15.9348 125.611C10.4401 123.567 -0.823755 144.994 1.15464 146.134Z" fill="url(#paint26_linear)"/>
<path d="M163.019 154.564C163.019 154.564 168.081 156.872 169.249 154.966C170.416 153.06 172.906 151.077 173.721 150.493C174.811 149.713 177.361 146.056 178.252 147.436C179.143 148.815 174.316 153.661 173.489 154.878C172.661 156.096 178.902 155.374 180.099 156.175C181.296 156.977 181.354 167.793 177.04 167.773C172.727 167.754 168.269 164.755 167.502 164.909C166.736 165.063 161.781 163.933 161.781 163.933L163.019 154.564Z" fill="#EEA886"/>
<path d="M179.104 155.922C179.104 155.922 192.264 156.899 193.053 157.735C193.842 158.57 193.714 159.315 192.478 159.277C191.241 159.24 179.719 158.719 179.719 158.719C179.719 158.719 194.981 162.621 195.778 163.15C196.245 163.46 196.079 164.914 195.412 164.958C194.745 165.002 179.364 162.049 179.364 162.049C179.364 162.049 193.607 165.72 194.137 166.377C194.601 166.952 194.13 168.262 193.052 168.067C191.975 167.871 178.534 165.255 178.534 165.255C178.534 165.255 188.708 168.616 188.83 169.464C188.904 169.983 188.817 171.243 186.221 170.289C183.626 169.334 177.246 167.766 177.246 167.766L179.104 155.922Z" fill="#EEA886"/>
<path d="M116.428 230.943C116.476 231.512 116.379 235.07 116.217 240.269H88.8235C88.3774 238.279 88.4047 233.93 88.0966 233.963C87.7802 233.995 86.8369 238.352 86.1637 240.269H54.5454C55.9565 228.603 57.6515 215.914 58.9974 205.711C59.0948 205.028 59.1758 204.379 59.2569 203.761C59.7515 200.049 60.1163 197.327 60.2949 196.019C60.376 195.458 60.4166 195.158 60.4166 195.158C61.0897 194.841 61.8033 194.557 62.5413 194.289C80.1871 187.936 114.214 194.663 114.214 194.663C117.093 213.234 116.428 230.943 116.428 230.943Z" fill="#292C47"/>
<path d="M98.3456 97.3159C98.3456 97.3159 127.243 103.462 129.652 111.507C132.062 119.552 136.344 132.79 141.596 153.697C142.385 156.84 172.219 152.625 172.219 152.625C172.219 152.625 174.702 165.371 174.769 165.78C174.948 166.892 134.469 168.95 131.548 168.207C127.334 167.136 120.23 138.86 120.23 138.86C120.23 138.86 116.404 181.574 116.404 188.171C116.404 194.768 116.838 208.127 116.838 208.127C116.838 208.127 106.131 212.237 85.3377 211.15C85.3377 211.15 52.2441 210.011 57.8925 199.907C62.1635 192.267 59.5456 140.866 58.9031 140.544C58.2607 140.222 46.7238 154.698 47.8481 157.485C48.9724 160.272 78.8302 170.268 78.8302 170.268C78.8302 170.268 79.7032 173.489 75.0645 180.787C75.0645 180.787 30.4664 167.731 30.3047 164.996C30.1451 162.261 48.8557 109.139 54.9662 106.358C63.7637 102.355 86.7683 96.0607 86.7683 96.0607L98.3456 97.3159Z" fill="url(#paint27_linear)"/>
<path d="M95.7032 150.057L61.7734 140.189L46.9394 191.374L80.8692 201.243L95.7032 150.057Z" fill="#D9C7C1"/>
<path d="M92.4563 149.111L58.5264 139.243L43.6923 190.429L77.6222 200.297L92.4563 149.111Z" fill="#6DBD7D"/>
<path d="M96.3777 135.825L55.8384 124.034L38.1146 185.19L78.6539 196.981L96.3777 135.825Z" fill="#EDDAD3"/>
<path d="M92.4966 134.696L51.9575 122.905L34.2337 184.062L74.7728 195.852L92.4966 134.696Z" fill="#548AD1"/>
<path d="M79.2278 143.41L56.3408 136.754L55.3054 140.327L78.1924 146.983L79.2278 143.41Z" fill="#609EF0"/>
<path d="M76.7864 150.115L53.9019 143.459L52.8664 147.032L75.751 153.688L76.7864 150.115Z" fill="#609EF0"/>
<path d="M88.0967 168.788C88.0967 168.788 91.3199 168.699 92.3074 168.556C93.2944 168.413 92.6427 170.516 91.4969 170.912C90.3509 171.309 88.0967 168.788 88.0967 168.788Z" fill="#E6A281"/>
<path d="M89.98 184.211C89.98 184.211 88.5726 184.553 87.8847 184.402C87.8847 184.402 86.6534 184.031 85.7624 183.82C85.4794 183.754 85.2312 183.703 85.0677 183.687C84.3838 183.618 82.8628 183.673 81.2667 183.047C79.6724 182.423 74.2617 179.643 74.2617 179.643L75.8089 174.604L76.9748 170.612C76.9748 170.612 86.1191 168.174 87.6724 168.584C87.8241 168.626 87.9723 168.672 88.108 168.725C89.3896 169.201 90.1437 170.094 90.7882 170.42C91.024 170.541 93.288 171.903 93.4059 172.685C93.5714 173.77 93.2463 174.589 92.6887 175.093C92.6887 175.093 92.9187 177.231 92.1271 178.443C92.1271 178.443 92.4026 180.409 90.9897 181.636C90.9895 181.635 91.0457 183.661 89.98 184.211Z" fill="#EEA886"/>
<path d="M78.8303 169.953C78.8303 169.953 78.9072 176.703 74.7505 181.745C74.7505 181.745 42.3143 170.55 38.4137 169.013C34.5129 167.476 52.5874 119.362 52.5874 119.362L65.8856 123.897L58.7414 137.431C58.7414 137.431 55.2045 145.013 47.8481 157.485C47.8481 157.485 52.3754 161.477 78.8303 169.953Z" fill="url(#paint28_linear)"/>
<path d="M77.1941 98.8018C77.1941 98.8018 76.871 111.68 90.1127 111.372C103.818 111.053 100.914 97.9087 100.914 97.9087C100.914 97.9087 90.5389 93.3842 77.1941 98.8018Z" fill="#EED9CF"/>
<path d="M97.8756 87.2479C97.8756 87.2479 96.6849 93.7847 98.7329 98.2496C98.7329 98.2496 100.818 108.654 90.1848 109.121C79.5519 109.587 79.667 97.8966 79.667 97.8966C79.667 97.8966 81.8513 96.6222 80.1536 87.312C78.4558 78.0018 97.8756 87.2479 97.8756 87.2479Z" fill="#EEA886"/>
<path d="M91.4122 49.4421C91.4122 49.4421 105.018 51.6408 102.946 73.4792C100.874 95.3174 88.8663 93.5274 88.0637 93.5053C87.261 93.4832 76.0088 93.9036 75.1316 67.2402C75.1318 67.2402 74.7488 47.5241 91.4122 49.4421Z" fill="#EEA886"/>
<path d="M103.156 67.3106C103.156 67.3106 104.646 65.678 105.192 67.3307C105.739 68.9834 103.251 76.1019 103.068 76.6996C103.068 76.6996 102.796 77.3406 102.438 76.9878C102.081 76.6347 103.156 67.3106 103.156 67.3106Z" fill="#EEA886"/>
<path d="M75.4615 67.0341C75.4615 67.0341 74.0028 65.3723 73.4253 67.014C72.8477 68.6558 75.2547 76.1444 75.3731 76.4234C75.3731 76.4234 75.6329 77.0698 75.9972 76.7239C76.3614 76.3779 75.4615 67.0341 75.4615 67.0341Z" fill="#EEA886"/>
<path d="M103.15 70.66L101.202 73.3315C101.202 73.3315 101.257 67.4747 100.945 66.5565C100.632 65.6381 101.314 62.4401 101.053 61.7785C100.791 61.1169 91.7469 63.5785 76.9136 62.065C76.9136 62.065 78.5635 67.3413 77.5964 67.7161C76.6294 68.091 77.1037 74.5752 77.1037 74.5752L75.502 72.7211C75.502 72.7211 73.6936 61.6442 73.8695 59.7949C74.1035 57.3342 73.2704 45.8409 94.1423 47.8135C96.5318 48.0395 98.8263 48.9172 100.735 50.4095C102.879 52.0867 105.085 54.7041 104.883 58.2994C104.616 63.0512 103.15 70.66 103.15 70.66Z" fill="#434343"/>
<path d="M81.8647 90.6119C81.8647 90.6119 87.4778 97.1772 96.3888 90.6119C96.3888 90.6119 93.8907 95.5924 88.652 95.7091C83.4132 95.8256 81.8647 90.6119 81.8647 90.6119Z" fill="#A77860"/>
<path d="M16.9525 74.0753L16.3247 74.0831L16.5182 89.7083L17.1459 89.7005L16.9525 74.0753Z" fill="#292929"/>
<path d="M16.8417 89.2115V89.2081C16.8383 89.2081 16.8352 89.2098 16.8317 89.21C16.8283 89.21 16.8252 89.2083 16.8216 89.2083V89.2117C15.3436 89.2997 15.6094 96.9206 15.6094 96.9206L16.9173 96.9043L16.9372 96.9039L18.2451 96.8876C18.2451 96.8876 18.3213 89.2626 16.8417 89.2115Z" fill="#292929"/>
<path d="M52.0818 65.4559L65.7409 55.8284L35.0465 50.0308L3.72998 76.732L21.853 79.0192L52.0818 65.4559Z" fill="#272A45"/>
<path d="M52.7023 69.0426C52.7023 69.0426 38.7056 71.1064 24.1135 82.4282L20.541 76.7045C20.541 76.7045 37.3452 65.4784 51.999 63.8733L52.7023 69.0426Z" fill="#51578F"/>
<defs>
<linearGradient id="paint0_linear" x1="190.348" y1="255.624" x2="283.262" y2="255.624" gradientUnits="userSpaceOnUse">
<stop stop-color="#186DA1"/>
<stop offset="1" stop-color="#639C38"/>
</linearGradient>
<linearGradient id="paint1_linear" x1="159.589" y1="184.501" x2="295.237" y2="184.501" gradientUnits="userSpaceOnUse">
<stop stop-color="#186DA1"/>
<stop offset="1" stop-color="#639C38"/>
</linearGradient>
<linearGradient id="paint2_linear" x1="121.125" y1="139.585" x2="153.409" y2="139.585" gradientUnits="userSpaceOnUse">
<stop stop-color="#D5E4FF"/>
<stop offset="1" stop-color="#EDFFFE"/>
</linearGradient>
<linearGradient id="paint3_linear" x1="138.921" y1="18.295" x2="154.761" y2="42.9992" gradientUnits="userSpaceOnUse">
<stop stop-color="#03C4D7"/>
<stop offset="1" stop-color="#8AE4B6"/>
</linearGradient>
<linearGradient id="paint4_linear" x1="137.673" y1="38.3645" x2="137.673" y2="60.1263" gradientUnits="userSpaceOnUse">
<stop stop-color="#03C4D7"/>
<stop offset="1" stop-color="#8AE4B6"/>
</linearGradient>
<linearGradient id="paint5_linear" x1="140.781" y1="57.0084" x2="140.781" y2="67.8966" gradientUnits="userSpaceOnUse">
<stop stop-color="#03C4D7"/>
<stop offset="1" stop-color="#8AE4B6"/>
</linearGradient>
<linearGradient id="paint6_linear" x1="209.71" y1="126.745" x2="238.66" y2="126.745" gradientUnits="userSpaceOnUse">
<stop stop-color="#D5E4FF"/>
<stop offset="1" stop-color="#EDFFFE"/>
</linearGradient>
<linearGradient id="paint7_linear" x1="209.71" y1="118.147" x2="244.772" y2="118.147" gradientUnits="userSpaceOnUse">
<stop stop-color="#D5E4FF"/>
<stop offset="1" stop-color="#EDFFFE"/>
</linearGradient>
<linearGradient id="paint8_linear" x1="114.225" y1="3.7067" x2="133.775" y2="3.7067" gradientUnits="userSpaceOnUse">
<stop stop-color="#D5E4FF"/>
<stop offset="1" stop-color="#EDFFFE"/>
</linearGradient>
<linearGradient id="paint9_linear" x1="114.225" y1="0.610764" x2="133.775" y2="0.610764" gradientUnits="userSpaceOnUse">
<stop stop-color="#D5E4FF"/>
<stop offset="1" stop-color="#EDFFFE"/>
</linearGradient>
<linearGradient id="paint10_linear" x1="155.086" y1="282.795" x2="108.6" y2="117.964" gradientUnits="userSpaceOnUse">
<stop stop-color="#EEA886"/>
<stop offset="0.7927" stop-color="#CF9174"/>
</linearGradient>
<linearGradient id="paint11_linear" x1="204.127" y1="319.653" x2="113.644" y2="107.863" gradientUnits="userSpaceOnUse">
<stop stop-color="#EEA886"/>
<stop offset="0.7927" stop-color="#CF9174"/>
<stop offset="0.8049" stop-color="#CC8E71"/>
<stop offset="0.9257" stop-color="#B4765A"/>
<stop offset="1" stop-color="#AB6D52"/>
</linearGradient>
<linearGradient id="paint12_linear" x1="141.003" y1="284.929" x2="124.871" y2="194.707" gradientUnits="userSpaceOnUse">
<stop stop-color="#EEA886"/>
<stop offset="0.7927" stop-color="#CF9174"/>
<stop offset="0.8049" stop-color="#CC8E71"/>
<stop offset="0.9257" stop-color="#B4765A"/>
<stop offset="1" stop-color="#AB6D52"/>
</linearGradient>
<linearGradient id="paint13_linear" x1="115.773" y1="305.345" x2="73.9956" y2="236.59" gradientUnits="userSpaceOnUse">
<stop stop-color="#EEA886"/>
<stop offset="0.3051" stop-color="#E29F7F"/>
<stop offset="0.7927" stop-color="#CF9174"/>
<stop offset="0.8049" stop-color="#CC8E71"/>
<stop offset="0.9257" stop-color="#B4765A"/>
<stop offset="1" stop-color="#AB6D52"/>
</linearGradient>
<linearGradient id="paint14_linear" x1="137.945" y1="230.738" x2="121.465" y2="184.87" gradientUnits="userSpaceOnUse">
<stop stop-color="#CF9174"/>
<stop offset="1" stop-color="#91624C"/>
</linearGradient>
<linearGradient id="paint15_linear" x1="79.7577" y1="119.006" x2="79.7577" y2="261.161" gradientUnits="userSpaceOnUse">
<stop offset="0.0829" stop-color="#BCD7E8"/>
<stop offset="1" stop-color="#E6E7E8"/>
</linearGradient>
<linearGradient id="paint16_linear" x1="84.7735" y1="261.77" x2="78.5669" y2="249.559" gradientUnits="userSpaceOnUse">
<stop stop-color="#A1A1A1"/>
<stop offset="0.956" stop-color="#BDBDBD"/>
</linearGradient>
<linearGradient id="paint17_linear" x1="207.542" y1="289.737" x2="207.542" y2="349.587" gradientUnits="userSpaceOnUse">
<stop stop-color="#03C4D7"/>
<stop offset="1" stop-color="#8AE4B6"/>
</linearGradient>
<linearGradient id="paint18_linear" x1="213.339" y1="312.519" x2="228.448" y2="365.937" gradientUnits="userSpaceOnUse">
<stop stop-color="#03C4D7"/>
<stop offset="1" stop-color="#8AE4B6"/>
</linearGradient>
<linearGradient id="paint19_linear" x1="22.4681" y1="269.221" x2="7.70948" y2="193.411" gradientUnits="userSpaceOnUse">
<stop stop-color="#EEA886"/>
<stop offset="0.7927" stop-color="#CF9174"/>
<stop offset="0.8049" stop-color="#CC8E71"/>
<stop offset="0.9257" stop-color="#B4765A"/>
<stop offset="1" stop-color="#AB6D52"/>
</linearGradient>
<linearGradient id="paint20_linear" x1="20.3529" y1="231.549" x2="29.263" y2="268.659" gradientUnits="userSpaceOnUse">
<stop stop-color="#DE9C7D"/>
<stop offset="1" stop-color="#FFE0D1"/>
</linearGradient>
<linearGradient id="paint21_linear" x1="17.8098" y1="221.812" x2="5.54261" y2="161.503" gradientUnits="userSpaceOnUse">
<stop stop-color="#EEA886"/>
<stop offset="0.7927" stop-color="#CF9174"/>
</linearGradient>
<linearGradient id="paint22_linear" x1="16.5734" y1="196.316" x2="26.7352" y2="240.733" gradientUnits="userSpaceOnUse">
<stop stop-color="#DE9C7D"/>
<stop offset="1" stop-color="#FFE0D1"/>
</linearGradient>
<linearGradient id="paint23_linear" x1="16.8289" y1="186.943" x2="17.3015" y2="95.062" gradientUnits="userSpaceOnUse">
<stop stop-color="#EEA886"/>
<stop offset="0.2483" stop-color="#E4A180"/>
<stop offset="0.7927" stop-color="#CF9174"/>
<stop offset="0.8049" stop-color="#CC8E71"/>
<stop offset="0.9257" stop-color="#B4765A"/>
<stop offset="1" stop-color="#AB6D52"/>
</linearGradient>
<linearGradient id="paint24_linear" x1="17.848" y1="170.611" x2="23.6234" y2="210.811" gradientUnits="userSpaceOnUse">
<stop stop-color="#DE9C7D"/>
<stop offset="1" stop-color="#FFE0D1"/>
</linearGradient>
<linearGradient id="paint25_linear" x1="11.7937" y1="146.806" x2="35.4449" y2="111.536" gradientUnits="userSpaceOnUse">
<stop stop-color="#EEA886"/>
<stop offset="0.7927" stop-color="#CF9174"/>
<stop offset="0.8049" stop-color="#CC8E71"/>
<stop offset="0.9257" stop-color="#B4765A"/>
<stop offset="1" stop-color="#AB6D52"/>
</linearGradient>
<linearGradient id="paint26_linear" x1="17.0091" y1="125.557" x2="-4.99643" y2="140.73" gradientUnits="userSpaceOnUse">
<stop stop-color="#DE9C7D"/>
<stop offset="1" stop-color="#FFE0D1"/>
</linearGradient>
<linearGradient id="paint27_linear" x1="102.537" y1="96.0607" x2="102.537" y2="211.333" gradientUnits="userSpaceOnUse">
<stop stop-color="#03C4D7"/>
<stop offset="1" stop-color="#8AE4B6"/>
</linearGradient>
<linearGradient id="paint28_linear" x1="58.3464" y1="119.362" x2="58.3464" y2="181.745" gradientUnits="userSpaceOnUse">
<stop stop-color="#03C4D7"/>
<stop offset="1" stop-color="#8AE4B6"/>
</linearGradient>
</defs>
</svg>